SplineFontDB: 3.0
FontName: Bodoni-36-Medium
FullName: Bodoni* 36 Medium
FamilyName: Bodoni* 36 Medium
Weight: Medium
Copyright: Copyright (c) 2017, Owen Earl,,, (EwonRael@yahoo.com)
Version: 001.0
ItalicAngle: 0
UnderlinePosition: -409
UnderlineWidth: 204
Ascent: 3276
Descent: 820
InvalidEm: 0
LayerCount: 2
Layer: 0 0 "Back" 1
Layer: 1 0 "Fore" 0
PreferredKerning: 4
XUID: [1021 31 -699969567 16487490]
FSType: 0
OS2Version: 0
OS2_WeightWidthSlopeOnly: 0
OS2_UseTypoMetrics: 1
CreationTime: 1460762150
ModificationTime: 1579186036
PfmFamily: 17
TTFWeight: 500
TTFWidth: 5
LineGap: 0
VLineGap: 0
OS2TypoAscent: 4194
OS2TypoAOffset: 0
OS2TypoDescent: -820
OS2TypoDOffset: 0
OS2TypoLinegap: 0
OS2WinAscent: 4096
OS2WinAOffset: 0
OS2WinDescent: 1638
OS2WinDOffset: 0
HheadAscent: 4194
HheadAOffset: 0
HheadDescent: -820
HheadDOffset: 0
OS2CapHeight: 3072
OS2XHeight: 1884
OS2FamilyClass: 768
OS2Vendor: 'it* '
OS2UnicodeRanges: 00000001.00000000.00000000.00000000
Lookup: 1 0 0 "'ss02' Style Set 2 lookup 4" { "'ss02' Style Set 2 lookup 4-1"  } ['ss02' ('DFLT' <'dflt' > 'grek' <'dflt' > 'latn' <'dflt' > ) ]
Lookup: 1 0 0 "'ss03' Style Set 3 lookup 5" { "'ss03' Style Set 3 lookup 5-1"  } ['ss03' ('DFLT' <'dflt' > 'grek' <'dflt' > 'latn' <'dflt' > ) ]
Lookup: 1 0 0 "'ss01' Style Set 1 lookup 2" { "'ss01' Style Set 1 lookup 2-1"  } ['ss01' ('DFLT' <'dflt' > 'grek' <'dflt' > 'latn' <'dflt' > ) ]
Lookup: 5 0 0 "'calt' Contextual Alternates lookup 3" { "'calt' Contextual Alternates lookup 3-1"  } ['calt' ('DFLT' <'dflt' > 'grek' <'dflt' > 'latn' <'dflt' > ) ]
Lookup: 4 0 1 "'liga' Standard Ligatures lookup 0" { "'liga' Standard Ligatures lookup 0-1"  } ['liga' ('DFLT' <'dflt' > 'grek' <'dflt' > 'latn' <'dflt' > ) ]
Lookup: 258 0 0 "'kern' Horizontal Kerning lookup 0" { "kerning like they all do" [150,0,6] } ['kern' ('DFLT' <'dflt' > 'grek' <'dflt' > 'latn' <'dflt' > ) ]
MarkAttachClasses: 1
DEI: 91125
KernClass2: 31 27 "kerning like they all do"

StartChar: ampersand
Encoding: 38 38 0
GlifName: ampersand
Width: 3410
Flags: HMW
LayerCount: 2
Fore
SplineSet
1533 1854 m 9
 1522 1870 l 1
 1678 1970 1878 2154 1878 2596 c 0
 1878 2808 1815 3090 1547 3090 c 0
 1277 3090 1182 2858 1182 2652 c 0
 1182 2498 1294 2270 1470 2008 c 2
 2765 25 l 1
 3283 25 l 1
 3283 0 l 1
 2202 0 l 1
 846 2008 l 2
 740 2164 658 2366 658 2510 c 0
 658 2878 1026 3112 1552 3112 c 0
 2042 3112 2383 2908 2383 2590 c 0
 2383 2178 1981 2050 1533 1854 c 9
1125 1670 m 1
 1134 1654 l 1
 861 1506 715 1277 715 886 c 0
 715 488 971 61 1389 61 c 0
 2147 61 2763 986 2842 1879 c 1
 2868 1879 l 1
 2780 967 2158 -40 1132 -40 c 0
 536 -40 162 253 162 714 c 0
 162 1333 959 1591 1125 1670 c 1
2310 1884 m 1
 3292 1884 l 1
 3292 1859 l 1
 2310 1859 l 1
 2310 1884 l 1
EndSplineSet
EndChar

StartChar: period
Encoding: 46 46 1
GlifName: period
Width: 941
Flags: HMW
LayerCount: 2
Fore
SplineSet
164 266 m 0
 164 434 304 574 472 574 c 0
 640 574 778 434 778 266 c 0
 778 98 640 -40 472 -40 c 0
 304 -40 164 98 164 266 c 0
EndSplineSet
EndChar

StartChar: zero
Encoding: 48 48 2
GlifName: zero
Width: 2620
Flags: HMW
LayerCount: 2
Fore
SplineSet
1311 -41 m 0
 623 -41 164 654 164 1536 c 0
 164 2418 663 3113 1311 3113 c 0
 1959 3113 2458 2418 2458 1536 c 0
 2458 654 1999 -41 1311 -41 c 0
1311 3090 m 0
 865 3090 758 2332 758 1536 c 0
 758 740 823 -18 1311 -18 c 0
 1799 -18 1864 740 1864 1536 c 0
 1864 2332 1768 3090 1311 3090 c 0
EndSplineSet
EndChar

StartChar: one
Encoding: 49 49 3
GlifName: one
Width: 1903
VWidth: 4730
Flags: HMW
LayerCount: 2
Fore
SplineSet
205 25 m 1
 1700 25 l 1
 1700 0 l 1
 205 0 l 1
 205 25 l 1
274 3072 m 1
 1249 3072 l 1
 1249 9 l 1
 737 9 l 1
 737 3047 l 1
 274 3047 l 1
 274 3072 l 1
EndSplineSet
EndChar

StartChar: two
Encoding: 50 50 4
GlifName: two
Width: 2354
VWidth: 4730
Flags: HMW
LayerCount: 2
Fore
SplineSet
2212 0 m 1
 164 0 l 1
 164 338 l 1
 1048 1126 l 2
 1411 1451 1594 1796 1594 2212 c 0
 1594 2696 1398 3044 994 3044 c 0
 562 3044 220 2686 241 2232 c 1
 283 2347 382 2446 540 2446 c 0
 708 2446 852 2328 852 2154 c 0
 852 1959 696 1836 522 1836 c 0
 348 1836 207 1965 207 2246 c 0
 207 2725 553 3113 1177 3113 c 0
 1785 3113 2126 2755 2126 2335 c 0
 2126 1895 1725 1670 1463 1448 c 2
 406 492 l 1
 2187 492 l 1
 2187 799 l 1
 2212 799 l 1
 2212 0 l 1
EndSplineSet
EndChar

StartChar: three
Encoding: 51 51 5
GlifName: three
Width: 2231
VWidth: 4730
Flags: HMW
LayerCount: 2
Fore
SplineSet
2068 830 m 0
 2068 288 1592 -41 994 -41 c 0
 381 -41 98 292 98 608 c 0
 98 807 226 930 400 930 c 0
 554 930 674 824 674 646 c 0
 674 484 534 369 384 369 c 0
 260 369 178 432 144 512 c 1
 176 263 441 0 928 -0 c 0
 1394 0 1532 414 1532 830 c 0
 1532 1164 1417 1647 776 1647 c 1
 776 1664 l 1
 1784 1664 2068 1292 2068 830 c 0
776 1652 m 1
 776 1671 l 1
 1376 1671 1410 2149 1410 2421 c 0
 1410 2735 1282 3074 978 3074 c 0
 676 3074 359 2895 289 2647 c 1
 346 2733 432 2771 516 2771 c 0
 656 2771 790 2668 790 2500 c 0
 790 2310 639 2215 506 2215 c 0
 352 2215 222 2316 222 2510 c 0
 222 2836 607 3109 1025 3109 c 0
 1521 3109 1946 2861 1946 2410 c 0
 1946 2000 1742 1652 776 1652 c 1
EndSplineSet
EndChar

StartChar: four
Encoding: 52 52 6
GlifName: four
Width: 2528
VWidth: 4730
Flags: HMW
LayerCount: 2
Fore
SplineSet
2345 25 m 1
 2345 0 l 1
 1136 0 l 1
 1136 25 l 1
 1526 25 l 1
 1526 2862 l 1
 190 893 l 1
 2488 893 l 1
 2488 867 l 1
 142 867 l 1
 1638 3072 l 1
 2038 3072 l 1
 2038 25 l 1
 2345 25 l 1
EndSplineSet
Substitution2: "'ss03' Style Set 3 lookup 5-1" four.alt
EndChar

StartChar: five
Encoding: 53 53 7
GlifName: five
Width: 2119
VWidth: 4730
Flags: HMW
LayerCount: 2
Fore
SplineSet
1854 2580 m 1
 278 2580 l 1
 278 1503 l 1
 254 1503 l 1
 254 3072 l 1
 1828 3072 l 1
 1828 3297 l 1
 1854 3297 l 1
 1854 2580 l 1
141 413 m 1
 193 193 496 -6 821 -6 c 0
 1308 -6 1444 501 1444 927 c 0
 1444 1435 1276 1848 922 1848 c 0
 598 1848 358 1655 286 1503 c 1
 263 1503 l 1
 339 1675 608 1894 1032 1894 c 0
 1610 1894 1996 1541 1996 927 c 0
 1996 385 1534 -41 885 -41 c 0
 457 -41 82 212 82 548 c 0
 82 747 218 864 376 864 c 0
 519 864 672 773 672 578 c 0
 672 404 527 287 369 287 c 0
 267 287 181 347 141 413 c 1
EndSplineSet
EndChar

StartChar: six
Encoding: 54 54 8
GlifName: six
Width: 2394
VWidth: 4730
Flags: HMW
LayerCount: 2
Fore
SplineSet
1730 1024 m 0
 1730 1624 1552 1956 1238 1956 c 0
 878 1956 747 1639 747 1147 c 1
 726 1147 l 1
 726 1652 838 2012 1346 2012 c 0
 1780 2012 2274 1720 2274 1024 c 0
 2274 410 1893 -41 1255 -41 c 0
 617 -41 205 410 205 1270 c 0
 205 2265 971 3113 1966 3113 c 1
 1966 3090 l 1
 1242 3090 747 2268 747 1370 c 1
 747 1147 l 1
 747 547 883 -15 1268 -15 c 0
 1653 -15 1730 506 1730 1024 c 0
EndSplineSet
EndChar

StartChar: seven
Encoding: 55 55 9
GlifName: seven
Width: 2139
VWidth: 4730
Flags: HMW
LayerCount: 2
Fore
SplineSet
647 342 m 0
 647 666 1002 1073 1254 1518 c 0
 1404 1790 1612 2204 1793 2560 c 1
 189 2560 l 1
 189 2253 l 1
 164 2253 l 1
 164 3072 l 1
 2100 3072 l 1
 2100 3072 1595 2078 1293 1524 c 0
 1095 1159 1015 1054 1015 892 c 0
 1015 614 1302 552 1302 289 c 0
 1302 107 1189 -41 978 -41 c 0
 787 -41 647 76 647 342 c 0
EndSplineSet
EndChar

StartChar: eight
Encoding: 56 56 10
GlifName: eight
Width: 2354
VWidth: 4730
Flags: HMW
LayerCount: 2
Fore
SplineSet
778 2294 m 0
 778 1899 873 1600 1177 1600 c 0
 1481 1600 1576 1899 1576 2294 c 0
 1576 2679 1481 3073 1177 3073 c 0
 873 3073 778 2679 778 2294 c 0
246 2294 m 0
 246 2745 569 3113 1177 3113 c 0
 1785 3113 2110 2745 2110 2294 c 0
 2110 1843 1785 1570 1177 1570 c 0
 569 1570 246 1843 246 2294 c 0
696 778 m 0
 696 372 822 -1 1177 -1 c 0
 1532 -1 1658 372 1658 778 c 0
 1658 1184 1532 1556 1177 1556 c 0
 822 1556 696 1184 696 778 c 0
164 778 m 0
 164 1270 487 1587 1177 1587 c 0
 1867 1587 2192 1270 2192 778 c 0
 2192 286 1867 -41 1177 -41 c 0
 487 -41 164 286 164 778 c 0
EndSplineSet
EndChar

StartChar: A
Encoding: 65 65 12
GlifName: A_
Width: 3137
Flags: HMW
LayerCount: 2
Fore
SplineSet
80 25 m 1
 982 25 l 1
 982 0 l 1
 80 0 l 1
 80 25 l 1
1767 25 m 1
 3058 25 l 1
 3058 0 l 1
 1767 0 l 1
 1767 25 l 1
826 1014 m 1
 2134 1014 l 1
 2134 989 l 1
 826 989 l 1
 826 1014 l 1
1368 2506 m 1
 490 0 l 1
 461 0 l 1
 1559 3133 l 1
 1684 3133 l 1
 2770 0 l 1
 2176 0 l 1
 1368 2506 l 1
EndSplineSet
EndChar

StartChar: B
Encoding: 66 66 13
GlifName: B_
Width: 2735
Flags: HMW
LayerCount: 2
Fore
SplineSet
1371 1570 m 2
 900 1570 l 1
 900 1591 l 1
 1330 1591 l 2
 1630 1591 1904 1786 1904 2273 c 0
 1904 2760 1630 3047 1330 3047 c 2
 80 3047 l 1
 80 3072 l 1
 1371 3072 l 2
 2020 3072 2436 2846 2436 2314 c 0
 2436 1792 2061 1570 1371 1570 c 2
448 3072 m 1
 962 3072 l 1
 962 0 l 1
 448 0 l 1
 448 3072 l 1
1453 0 m 2
 80 0 l 1
 80 25 l 1
 1370 25 l 2
 1712 25 1986 373 1986 860 c 0
 1986 1347 1712 1564 1370 1564 c 2
 900 1564 l 1
 900 1584 l 1
 1453 1584 l 2
 2061 1584 2558 1392 2558 840 c 0
 2558 236 2143 0 1453 0 c 2
EndSplineSet
EndChar

StartChar: C
Encoding: 67 67 14
GlifName: C_
Width: 2837
Flags: HMW
LayerCount: 2
Fore
SplineSet
2590 3072 m 1
 2612 3072 l 1
 2612 2201 l 1
 2556 2471 2435 2679 2277 2842 c 1
 2590 3072 l 1
2612 2201 m 1
 2585 2201 l 1
 2509 2711 2112 3072 1653 3072 c 0
 991 3072 772 2281 772 1536 c 0
 772 791 991 0 1653 -0 c 0
 2213 0 2560 399 2626 871 c 1
 2652 871 l 1
 2590 347 2198 -41 1612 -41 c 0
 740 -41 178 623 178 1536 c 0
 178 2449 740 3113 1612 3113 c 0
 2136 3113 2540 2725 2612 2201 c 1
2652 871 m 1
 2652 0 l 1
 2630 0 l 1
 2340 252 l 1
 2492 414 2600 597 2652 871 c 1
EndSplineSet
EndChar

StartChar: D
Encoding: 68 68 15
GlifName: D_
Width: 3002
Flags: HMW
LayerCount: 2
Fore
SplineSet
448 3072 m 1
 962 3072 l 1
 962 0 l 1
 448 0 l 1
 448 3072 l 1
1308 0 m 2
 80 0 l 1
 80 25 l 1
 1308 25 l 2
 2000 25 2230 760 2230 1536 c 0
 2230 2312 1960 3047 1308 3047 c 2
 80 3047 l 1
 80 3072 l 1
 1308 3072 l 2
 2252 3072 2826 2428 2826 1536 c 0
 2826 644 2211 0 1308 0 c 2
EndSplineSet
EndChar

StartChar: E
Encoding: 69 69 16
GlifName: E_
Width: 2501
Flags: HMW
LayerCount: 2
Fore
SplineSet
2346 922 m 1
 2370 922 l 1
 2370 0 l 1
 80 0 l 1
 80 25 l 1
 1504 25 l 2
 2065 25 2315 402 2346 922 c 1
448 3072 m 1
 962 3072 l 1
 962 0 l 1
 448 0 l 1
 448 3072 l 1
80 3072 m 1
 2328 3072 l 1
 2328 2232 l 1
 2304 2232 l 1
 2273 2670 2023 3047 1544 3047 c 2
 80 3047 l 1
 80 3072 l 1
1638 1108 m 1
 1607 1382 1389 1577 1156 1577 c 2
 848 1577 l 1
 848 1603 l 1
 1156 1603 l 2
 1389 1603 1607 1776 1638 2050 c 1
 1664 2050 l 1
 1664 1108 l 1
 1638 1108 l 1
EndSplineSet
EndChar

StartChar: F
Encoding: 70 70 17
GlifName: F_
Width: 2408
Flags: HMW
LayerCount: 2
Fore
SplineSet
80 3072 m 1
 2278 3072 l 1
 2278 2232 l 1
 2253 2232 l 1
 2222 2670 1993 3047 1525 3047 c 2
 80 3047 l 1
 80 3072 l 1
80 25 m 1
 1372 25 l 1
 1372 0 l 1
 80 0 l 1
 80 25 l 1
448 3072 m 1
 962 3072 l 1
 962 0 l 1
 448 0 l 1
 448 3072 l 1
1658 1057 m 1
 1627 1331 1440 1515 1104 1515 c 2
 838 1515 l 1
 838 1541 l 1
 1104 1541 l 2
 1440 1541 1627 1704 1658 1978 c 1
 1684 1978 l 1
 1684 1057 l 1
 1658 1057 l 1
EndSplineSet
EndChar

StartChar: G
Encoding: 71 71 18
GlifName: G_
Width: 3023
Flags: HMW
LayerCount: 2
Fore
SplineSet
2652 2201 m 1
 2598 2487 2450 2712 2296 2852 c 1
 2630 3072 l 1
 2652 3072 l 1
 2652 2201 l 1
1766 1182 m 1
 2974 1182 l 1
 2974 1154 l 1
 1766 1154 l 1
 1766 1182 l 1
2196 1165 m 1
 2748 1165 l 1
 2748 656 l 1
 2554 388 2240 -41 1572 -41 c 0
 689 -41 178 602 178 1536 c 0
 178 2470 801 3113 1632 3113 c 0
 2156 3113 2612 2705 2652 2201 c 1
 2628 2201 l 1
 2584 2672 2159 3072 1680 3072 c 0
 1018 3072 772 2281 772 1536 c 0
 772 791 931 -12 1572 -12 c 0
 1998 -12 2144 381 2196 512 c 1
 2196 1165 l 1
EndSplineSet
EndChar

StartChar: H
Encoding: 72 72 19
GlifName: H_
Width: 3150
Flags: HMW
LayerCount: 2
Fore
SplineSet
880 1529 m 1
 2272 1529 l 1
 2272 1503 l 1
 880 1503 l 1
 880 1529 l 1
1801 25 m 1
 3072 25 l 1
 3072 0 l 1
 1801 0 l 1
 1801 25 l 1
80 25 m 1
 1350 25 l 1
 1350 0 l 1
 80 0 l 1
 80 25 l 1
1801 3072 m 1
 3072 3072 l 1
 3072 3047 l 1
 1801 3047 l 1
 1801 3072 l 1
80 3072 m 1
 1350 3072 l 1
 1350 3047 l 1
 80 3047 l 1
 80 3072 l 1
2190 3072 m 1
 2702 3072 l 1
 2702 0 l 1
 2190 0 l 1
 2190 3072 l 1
448 3072 m 1
 962 3072 l 1
 962 0 l 1
 448 0 l 1
 448 3072 l 1
EndSplineSet
EndChar

StartChar: I
Encoding: 73 73 20
GlifName: I_
Width: 1614
Flags: HMW
LayerCount: 2
Fore
SplineSet
80 25 m 1
 1536 25 l 1
 1536 0 l 1
 80 0 l 1
 80 25 l 1
80 3072 m 1
 1536 3072 l 1
 1536 3047 l 1
 80 3047 l 1
 80 3072 l 1
530 3072 m 1
 1044 3072 l 1
 1044 0 l 1
 530 0 l 1
 530 3072 l 1
EndSplineSet
EndChar

StartChar: J
Encoding: 74 74 21
GlifName: J_
Width: 2000
Flags: HMW
LayerCount: 2
Fore
SplineSet
466 3072 m 1
 1922 3072 l 1
 1922 3047 l 1
 466 3047 l 1
 466 3072 l 1
998 3072 m 1
 1512 3072 l 1
 1512 696 l 1
 1389 358 1196 -123 652 -123 c 0
 286 -123 74 130 74 386 c 0
 74 589 214 714 378 714 c 0
 521 714 670 610 670 411 c 0
 670 231 532 116 368 116 c 0
 262 116 182 152 156 174 c 1
 220 60 381 -96 644 -96 c 0
 962 -96 998 205 998 778 c 2
 998 3072 l 1
EndSplineSet
Substitution2: "'ss02' Style Set 2 lookup 4-1" J.alt
EndChar

StartChar: K
Encoding: 75 75 22
GlifName: K_
Width: 2977
Flags: HMW
LayerCount: 2
Fore
SplineSet
80 25 m 1
 1350 25 l 1
 1350 0 l 1
 80 0 l 1
 80 25 l 1
80 3072 m 1
 1372 3072 l 1
 1372 3047 l 1
 80 3047 l 1
 80 3072 l 1
448 3072 m 1
 962 3072 l 1
 962 0 l 1
 448 0 l 1
 448 3072 l 1
576 889 m 1
 540 889 l 1
 2276 3064 l 1
 2314 3064 l 1
 576 889 l 1
1576 25 m 1
 2948 25 l 1
 2948 0 l 1
 1576 0 l 1
 1576 25 l 1
2763 3047 m 1
 1780 3047 l 1
 1780 3072 l 1
 2763 3072 l 1
 2763 3047 l 1
2628 0 m 1
 2014 0 l 1
 1110 1593 l 1
 1444 1995 l 1
 2628 0 l 1
EndSplineSet
EndChar

StartChar: L
Encoding: 76 76 23
GlifName: L_
Width: 2445
Flags: HMW
LayerCount: 2
Fore
SplineSet
448 3072 m 1
 962 3072 l 1
 962 0 l 1
 448 0 l 1
 448 3072 l 1
80 3072 m 1
 1330 3072 l 1
 1330 3047 l 1
 80 3047 l 1
 80 3072 l 1
2354 0 m 1
 80 0 l 1
 80 25 l 1
 1488 25 l 2
 2110 25 2298 402 2329 922 c 1
 2354 922 l 1
 2354 0 l 1
EndSplineSet
EndChar

StartChar: M
Encoding: 77 77 24
GlifName: M_
Width: 3533
Flags: HMW
LayerCount: 2
Fore
SplineSet
3454 3072 m 1
 3454 3047 l 1
 3168 3047 l 1
 3168 0 l 1
 2656 0 l 1
 2656 3072 l 1
 3454 3072 l 1
100 25 m 1
 735 25 l 1
 735 0 l 1
 100 0 l 1
 100 25 l 1
2328 25 m 1
 3454 25 l 1
 3454 0 l 1
 2328 0 l 1
 2328 25 l 1
1803 698 m 1
 2638 3072 l 1
 2665 3072 l 1
 1575 -41 l 1
 1544 -41 l 1
 406 3072 l 1
 922 3072 l 1
 1803 698 l 1
395 3047 m 1
 80 3047 l 1
 80 3072 l 1
 422 3072 l 1
 422 0 l 1
 395 0 l 1
 395 3047 l 1
EndSplineSet
EndChar

StartChar: N
Encoding: 78 78 25
GlifName: N_
Width: 3064
Flags: HMW
LayerCount: 2
Fore
SplineSet
2528 3072 m 1
 2554 3072 l 1
 2554 -41 l 1
 2520 -41 l 1
 496 3072 l 1
 1110 3072 l 1
 2528 834 l 1
 2528 3072 l 1
2051 3072 m 1
 2984 3072 l 1
 2984 3047 l 1
 2051 3047 l 1
 2051 3072 l 1
80 25 m 1
 1000 25 l 1
 1000 0 l 1
 80 0 l 1
 80 25 l 1
490 3047 m 1
 80 3047 l 1
 80 3072 l 1
 516 3072 l 1
 516 0 l 1
 490 0 l 1
 490 3047 l 1
EndSplineSet
EndChar

StartChar: O
Encoding: 79 79 26
GlifName: O_
Width: 3059
Flags: HMW
LayerCount: 2
Fore
SplineSet
1530 -41 m 0
 678 -41 178 654 178 1536 c 0
 178 2418 718 3113 1530 3113 c 0
 2342 3113 2882 2418 2882 1536 c 0
 2882 654 2382 -41 1530 -41 c 0
1530 3090 m 0
 930 3090 772 2332 772 1536 c 0
 772 740 888 -18 1530 -18 c 0
 2172 -18 2288 740 2288 1536 c 0
 2288 2332 2130 3090 1530 3090 c 0
EndSplineSet
EndChar

StartChar: P
Encoding: 80 80 27
GlifName: P_
Width: 2657
Flags: HMW
LayerCount: 2
Fore
SplineSet
448 3072 m 1
 962 3072 l 1
 962 0 l 1
 448 0 l 1
 448 3072 l 1
80 25 m 1
 1330 25 l 1
 1330 0 l 1
 80 0 l 1
 80 25 l 1
1391 1375 m 2
 828 1375 l 1
 828 1400 l 1
 1350 1400 l 2
 1722 1400 1913 1843 1913 2208 c 0
 1913 2573 1722 3047 1350 3047 c 2
 80 3047 l 1
 80 3072 l 1
 1391 3072 l 2
 2153 3072 2488 2740 2488 2208 c 0
 2488 1676 2153 1375 1391 1375 c 2
EndSplineSet
EndChar

StartChar: Q
Encoding: 81 81 28
GlifName: Q_
Width: 3059
Flags: HMW
LayerCount: 2
Fore
SplineSet
1530 -41 m 0
 678 -41 178 654 178 1536 c 0
 178 2418 718 3113 1530 3113 c 0
 2342 3113 2882 2418 2882 1536 c 0
 2882 654 2382 -41 1530 -41 c 0
1530 3090 m 0
 930 3090 772 2332 772 1536 c 0
 772 740 888 -18 1530 -18 c 0
 2172 -18 2288 740 2288 1536 c 0
 2288 2332 2130 3090 1530 3090 c 0
2288 -999 m 1
 2288 -1024 l 1
 1344 -1024 1224 -755 1224 5 c 1
 1428 -44 1616 -45 1816 5 c 1
 1816 -740 1856 -999 2288 -999 c 1
EndSplineSet
EndChar

StartChar: R
Encoding: 82 82 29
GlifName: R_
Width: 2963
Flags: HMW
LayerCount: 2
Fore
SplineSet
1474 1566 m 2
 818 1566 l 1
 818 1586 l 1
 1422 1586 l 2
 1815 1586 2026 1844 2026 2310 c 0
 2026 2776 1815 3047 1422 3047 c 2
 80 3047 l 1
 80 3072 l 1
 1474 3072 l 2
 2123 3072 2559 2842 2559 2310 c 0
 2559 1778 2164 1566 1474 1566 c 2
80 25 m 1
 1452 25 l 1
 1452 0 l 1
 80 0 l 1
 80 25 l 1
510 3072 m 1
 1023 3072 l 1
 1023 0 l 1
 510 0 l 1
 510 3072 l 1
2907 49 m 1
 2841 12 2688 -25 2478 -25 c 0
 1442 -25 2420 1559 1412 1559 c 2
 818 1559 l 1
 818 1577 l 1
 1618 1577 l 2
 2984 1577 2176 20 2676 20 c 0
 2762 20 2840 43 2897 70 c 1
 2907 49 l 1
EndSplineSet
Substitution2: "'ss01' Style Set 1 lookup 2-1" R.alt
EndChar

StartChar: S
Encoding: 83 83 30
GlifName: S_
Width: 2376
Flags: HMW
LayerCount: 2
Fore
SplineSet
2061 2232 m 1
 2034 2232 l 1
 1911 2788 1590 3080 1144 3080 c 0
 782 3080 592 2873 592 2573 c 0
 592 1846 2219 2013 2219 850 c 0
 2219 298 1814 -61 1236 -61 c 0
 600 -61 314 368 185 860 c 1
 210 860 l 1
 334 384 620 -32 1208 -32 c 0
 1622 -32 1886 210 1886 608 c 0
 1886 1417 233 1198 233 2324 c 0
 233 2806 646 3113 1112 3113 c 0
 1606 3113 1938 2808 2061 2232 c 1
2038 3113 m 1
 2061 3113 l 1
 2061 2232 l 1
 1987 2468 1904 2672 1744 2854 c 1
 2038 3113 l 1
206 -41 m 1
 185 -41 l 1
 185 860 l 1
 286 578 369 406 507 242 c 1
 206 -41 l 1
EndSplineSet
EndChar

StartChar: T
Encoding: 84 84 31
GlifName: T_
Width: 2712
Flags: HMW
LayerCount: 2
Fore
SplineSet
650 25 m 1
 2064 25 l 1
 2064 0 l 1
 650 0 l 1
 650 25 l 1
1100 3065 m 1
 1613 3065 l 1
 1613 0 l 1
 1100 0 l 1
 1100 3065 l 1
1950 3047 m 2
 762 3047 l 2
 304 3047 137 2640 106 2120 c 1
 80 2120 l 1
 80 3072 l 1
 2632 3072 l 1
 2632 2120 l 1
 2607 2120 l 1
 2576 2640 2408 3047 1950 3047 c 2
EndSplineSet
EndChar

StartChar: U
Encoding: 85 85 32
GlifName: U_
Width: 2928
Flags: HMW
LayerCount: 2
Fore
SplineSet
2040 3072 m 1
 2847 3072 l 1
 2847 3047 l 1
 2040 3047 l 1
 2040 3072 l 1
78 3072 m 1
 1369 3072 l 1
 1369 3047 l 1
 78 3047 l 1
 78 3072 l 1
2421 3072 m 1
 2446 3072 l 1
 2446 942 l 2
 2446 266 2170 -61 1512 -61 c 0
 772 -61 446 233 446 942 c 2
 446 3072 l 1
 959 3072 l 1
 959 983 l 2
 959 442 1072 -14 1631 -14 c 0
 2136 -14 2421 282 2421 942 c 2
 2421 3072 l 1
EndSplineSet
EndChar

StartChar: V
Encoding: 86 86 33
GlifName: V_
Width: 3127
Flags: HMW
LayerCount: 2
Fore
SplineSet
3054 3047 m 1
 2144 3047 l 1
 2144 3072 l 1
 3054 3072 l 1
 3054 3047 l 1
1406 3047 m 1
 76 3047 l 1
 76 3072 l 1
 1406 3072 l 1
 1406 3047 l 1
1770 564 m 1
 2670 3072 l 1
 2700 3072 l 1
 1574 -61 l 1
 1448 -61 l 1
 362 3072 l 1
 956 3072 l 1
 1770 564 l 1
EndSplineSet
EndChar

StartChar: W
Encoding: 87 87 34
GlifName: W_
Width: 4261
Flags: HMW
LayerCount: 2
Fore
SplineSet
2299 1944 m 1
 1550 -41 l 5
 1442 -41 l 1
 394 3072 l 1
 960 3072 l 1
 1775 637 l 1
 2298 2025 l 1
 2299 1944 l 1
2461 1925 m 1
 2444 1962 l 1
 2836 3072 l 1
 2866 3070 l 1
 2461 1925 l 1
4212 3048 m 1
 3396 3047 l 1
 3396 3072 l 1
 4212 3072 l 1
 4212 3048 l 1
2128 3072 m 1
 2938 637 l 1
 3832 3072 l 1
 3862 3070 l 1
 2720 -41 l 1
 2642 -41 l 1
 1594 3072 l 1
 2128 3072 l 1
3202 3047 m 1
 50 3047 l 1
 50 3072 l 1
 3202 3072 l 1
 3202 3047 l 1
EndSplineSet
EndChar

StartChar: X
Encoding: 88 88 35
GlifName: X_
Width: 3137
Flags: HMW
LayerCount: 2
Fore
SplineSet
1586 1544 m 1
 1551 1544 l 1
 2476 3064 l 1
 2508 3064 l 1
 1586 1544 l 1
512 0 m 1
 478 0 l 1
 1576 1708 l 1
 1610 1708 l 1
 512 0 l 1
1810 25 m 1
 3086 25 l 1
 3086 0 l 1
 1810 0 l 1
 1810 25 l 1
48 25 m 1
 1028 25 l 1
 1028 0 l 1
 48 0 l 1
 48 25 l 1
1462 3047 m 1
 190 3047 l 1
 190 3072 l 1
 1462 3072 l 1
 1462 3047 l 1
2860 3047 m 1
 1962 3047 l 1
 1962 3072 l 1
 2860 3072 l 1
 2860 3047 l 1
2822 0 m 1
 2208 0 l 1
 436 3072 l 1
 1036 3072 l 1
 2822 0 l 1
EndSplineSet
EndChar

StartChar: Y
Encoding: 89 89 36
GlifName: Y_
Width: 2967
Flags: HMW
LayerCount: 2
Fore
SplineSet
2916 3047 m 1
 2060 3047 l 1
 2060 3072 l 1
 2916 3072 l 1
 2916 3047 l 1
1360 3047 m 1
 48 3047 l 1
 48 3072 l 1
 1360 3072 l 1
 1360 3047 l 1
898 25 m 1
 2188 25 l 1
 2188 0 l 1
 898 0 l 1
 898 25 l 1
1763 1594 m 1
 2540 3064 l 1
 2572 3064 l 1
 1778 1569 l 1
 1778 0 l 1
 1266 0 l 1
 1266 1475 l 1
 321 3072 l 1
 914 3072 l 1
 1763 1594 l 1
EndSplineSet
EndChar

StartChar: Z
Encoding: 90 90 37
GlifName: Z_
Width: 2395
Flags: HMW
LayerCount: 2
Fore
SplineSet
146 3072 m 1
 2232 3072 l 1
 2232 3047 l 1
 636 25 l 1
 1466 25 l 2
 2027 25 2204 289 2245 809 c 1
 2270 809 l 1
 2270 0 l 1
 62 0 l 1
 62 25 l 1
 1660 3047 l 1
 950 3047 l 2
 389 3047 213 2783 172 2345 c 1
 146 2345 l 1
 146 3072 l 1
EndSplineSet
EndChar

StartChar: a
Encoding: 97 97 38
GlifName: a
Width: 2314
VWidth: 4730
Flags: HMW
LayerCount: 2
Fore
SplineSet
2276 243 m 1
 2184 52 1997 -41 1792 -41 c 0
 1568 -41 1366 34 1366 312 c 2
 1366 1249 l 2
 1366 1545 1309 1882 991 1882 c 0
 760 1882 562 1794 480 1710 c 1
 721 1797 890 1654 890 1496 c 0
 890 1322 732 1233 598 1233 c 0
 444 1233 334 1330 334 1488 c 0
 334 1747 690 1917 1084 1917 c 0
 1724 1917 1837 1601 1837 1249 c 2
 1837 188 l 2
 1837 92 1882 33 1980 33 c 0
 2048 33 2178 98 2256 253 c 1
 2276 243 l 1
1088 1039 m 2
 1578 1039 l 1
 1578 1014 l 1
 1160 1014 l 2
 874 1014 708 774 708 496 c 0
 708 244 800 78 966 78 c 0
 1169 78 1366 251 1366 743 c 1
 1388 743 l 1
 1388 239 1196 -41 746 -41 c 0
 420 -41 190 159 190 463 c 0
 190 809 480 1039 1088 1039 c 2
EndSplineSet
EndChar

StartChar: b
Encoding: 98 98 39
GlifName: b
Width: 2522
VWidth: 4730
Flags: HMW
LayerCount: 2
Fore
SplineSet
821 942 m 0
 821 1552 1062 1922 1484 1922 c 0
 1928 1922 2350 1556 2350 942 c 0
 2350 328 1928 -40 1484 -40 c 0
 1062 -40 821 332 821 942 c 0
844 942 m 0
 844 332 1103 16 1389 16 c 0
 1677 16 1809 373 1809 942 c 0
 1809 1511 1677 1864 1389 1864 c 0
 1103 1864 844 1552 844 942 c 0
374 3047 m 1
 113 3047 l 1
 113 3072 l 1
 844 3072 l 1
 844 0 l 1
 113 0 l 1
 113 25 l 1
 374 25 l 1
 374 3047 l 1
EndSplineSet
EndChar

StartChar: c
Encoding: 99 99 40
GlifName: c
Width: 2114
VWidth: 4730
Flags: HMW
LayerCount: 2
Fore
SplineSet
1838 1534 m 1
 1766 1746 1506 1894 1228 1894 c 0
 794 1894 728 1327 728 942 c 0
 728 475 820 2 1213 2 c 0
 1563 2 1784 241 1892 577 c 1
 1917 577 l 1
 1811 225 1584 -41 1150 -41 c 0
 582 -41 175 308 175 942 c 0
 175 1494 525 1925 1174 1925 c 0
 1602 1925 1900 1685 1900 1388 c 0
 1900 1201 1775 1100 1621 1100 c 0
 1488 1100 1335 1176 1335 1376 c 0
 1335 1548 1477 1638 1601 1638 c 0
 1709 1638 1810 1585 1838 1534 c 1
EndSplineSet
EndChar

StartChar: d
Encoding: 100 100 41
GlifName: d
Width: 2522
VWidth: 4730
Flags: HMW
LayerCount: 2
Fore
SplineSet
1703 940 m 0
 1703 330 1464 -38 1042 -38 c 0
 598 -38 175 326 175 940 c 0
 175 1554 598 1924 1042 1924 c 0
 1464 1924 1703 1550 1703 940 c 0
1680 940 m 0
 1680 1554 1420 1866 1136 1866 c 0
 848 1866 717 1512 717 940 c 0
 717 368 850 20 1138 20 c 0
 1422 20 1680 326 1680 940 c 0
2412 25 m 1
 2412 0 l 1
 1680 0 l 1
 1680 3047 l 1
 1420 3047 l 1
 1420 3072 l 1
 2152 3072 l 1
 2152 25 l 1
 2412 25 l 1
EndSplineSet
EndChar

StartChar: e
Encoding: 101 101 42
GlifName: e
Width: 2169
VWidth: 4730
Flags: HMW
LayerCount: 2
Fore
SplineSet
449 1064 m 1
 449 1091 l 1
 1482 1091 l 1
 1484 1421 1446 1899 1136 1899 c 0
 794 1899 706 1429 706 962 c 0
 706 464 802 -4 1214 -4 c 0
 1610 -4 1884 247 1986 577 c 1
 2012 577 l 1
 1906 225 1624 -41 1151 -41 c 0
 597 -41 175 318 175 942 c 0
 175 1566 581 1925 1136 1925 c 0
 1744 1925 2003 1510 2003 1064 c 1
 449 1064 l 1
EndSplineSet
EndChar

StartChar: f
Encoding: 102 102 43
GlifName: f
Width: 1593
VWidth: 4730
Flags: HMW
LayerCount: 2
Fore
SplineSet
93 25 m 1
 1360 25 l 1
 1360 0 l 1
 93 0 l 1
 93 25 l 1
93 1884 m 1
 1442 1884 l 1
 1442 1859 l 1
 93 1859 l 1
 93 1884 l 1
1822 2780 m 1
 1786 2916 1635 3087 1336 3087 c 0
 1008 3087 896 2732 896 2212 c 2
 896 0 l 1
 436 0 l 1
 436 2097 l 2
 436 2655 771 3113 1334 3113 c 0
 1676 3113 1868 2890 1868 2676 c 0
 1868 2488 1748 2382 1594 2382 c 0
 1461 2382 1312 2468 1312 2648 c 0
 1312 2822 1445 2916 1585 2916 c 0
 1689 2916 1778 2865 1822 2780 c 1
EndSplineSet
EndChar

StartChar: g
Encoding: 103 103 44
GlifName: g
Width: 2479
VWidth: 4730
Flags: HMW
LayerCount: 2
Fore
SplineSet
244 288 m 0
 244 596 678 698 1014 698 c 1
 1013 680 l 1
 837 680 565 614 565 452 c 0
 565 316 746 314 971 314 c 0
 1114 314 1189 318 1304 318 c 0
 1611 318 1974 221 1974 -336 c 0
 1974 -836 1553 -1065 1049 -1065 c 0
 572 -1065 113 -912 113 -530 c 0
 113 -164 540 -71 724 -71 c 2
 744 -71 l 1
 580 -159 550 -320 550 -438 c 0
 550 -735 718 -1034 1093 -1034 c 0
 1489 -1034 1880 -843 1880 -472 c 0
 1880 -196 1588 -88 1322 -88 c 0
 1226 -88 997 -88 907 -88 c 0
 538 -88 244 3 244 288 c 0
706 1290 m 0
 706 966 728 699 1001 699 c 0
 1202 699 1295 966 1295 1290 c 0
 1295 1614 1202 1899 1001 1899 c 0
 800 1899 706 1614 706 1290 c 0
216 1290 m 0
 216 1741 638 1925 1001 1925 c 0
 1364 1925 1783 1741 1783 1290 c 0
 1783 839 1364 674 1001 674 c 0
 638 674 216 839 216 1290 c 0
2352 1648 m 1
 2330 1766 2224 1880 2026 1880 c 0
 1842 1880 1600 1768 1518 1414 c 1
 1496 1424 l 1
 1578 1794 1842 1905 2026 1905 c 0
 2264 1905 2389 1743 2389 1587 c 0
 2389 1383 2266 1318 2154 1318 c 0
 2042 1318 1924 1392 1924 1548 c 0
 1924 1671 2023 1762 2148 1762 c 0
 2242 1762 2330 1714 2352 1648 c 1
EndSplineSet
EndChar

StartChar: h
Encoding: 104 104 45
GlifName: h
Width: 2462
VWidth: 4730
Flags: HMW
LayerCount: 2
Fore
SplineSet
1622 1276 m 2
 1622 1620 1594 1845 1394 1845 c 0
 942 1845 844 1278 844 914 c 1
 824 902 l 1
 824 1295 898 1925 1512 1925 c 0
 1980 1925 2092 1663 2092 1307 c 2
 2092 0 l 1
 1622 0 l 1
 1622 1276 l 2
1394 25 m 1
 2352 25 l 1
 2352 0 l 1
 1394 0 l 1
 1394 25 l 1
113 25 m 1
 1073 25 l 1
 1073 0 l 1
 113 0 l 1
 113 25 l 1
374 3047 m 1
 113 3047 l 1
 113 3072 l 1
 844 3072 l 1
 844 0 l 1
 374 0 l 1
 374 3047 l 1
EndSplineSet
EndChar

StartChar: i
Encoding: 105 105 46
GlifName: i
Width: 1241
VWidth: 4730
Flags: HMW
LayerCount: 2
Fore
SplineSet
134 25 m 1
 1124 25 l 1
 1124 0 l 1
 134 0 l 1
 134 25 l 1
292 2816 m 0
 292 2982 422 3113 588 3113 c 0
 754 3113 886 2982 886 2816 c 0
 886 2650 754 2518 588 2518 c 0
 422 2518 292 2650 292 2816 c 0
394 1859 m 1
 134 1859 l 1
 134 1884 l 1
 864 1884 l 1
 864 0 l 1
 394 0 l 1
 394 1859 l 1
EndSplineSet
EndChar

StartChar: j
Encoding: 106 106 47
GlifName: j
Width: 1270
VWidth: 4730
Flags: HMW
LayerCount: 2
Fore
SplineSet
362 2816 m 0
 362 2982 492 3113 658 3113 c 0
 824 3113 954 2982 954 2816 c 0
 954 2650 824 2518 658 2518 c 0
 492 2518 362 2650 362 2816 c 0
926 1884 m 1
 926 -49 l 2
 926 -586 713 -1065 161 -1065 c 0
 -191 -1065 -404 -850 -404 -598 c 0
 -404 -410 -271 -304 -121 -304 c 0
 12 -304 160 -382 160 -566 c 0
 160 -740 36 -836 -140 -836 c 0
 -250 -836 -332 -761 -362 -686 c 1
 -345 -854 -154 -1034 124 -1034 c 0
 524 -1034 452 -436 452 84 c 2
 456 1859 l 1
 113 1859 l 1
 113 1884 l 1
 926 1884 l 1
EndSplineSet
EndChar

StartChar: k
Encoding: 107 107 48
GlifName: k
Width: 2526
VWidth: 4730
Flags: HMW
LayerCount: 2
Fore
SplineSet
2300 0 m 1
 1717 0 l 1
 854 1082 l 1
 1926 1884 l 1
 1962 1884 l 1
 1226 1321 l 1
 2300 0 l 1
1420 25 m 1
 2456 25 l 1
 2456 0 l 1
 1420 0 l 1
 1420 25 l 1
2286 1859 m 1
 1426 1859 l 1
 1426 1884 l 1
 2286 1884 l 1
 2286 1859 l 1
113 25 m 1
 1182 25 l 1
 1182 0 l 1
 113 0 l 1
 113 25 l 1
456 3047 m 1
 113 3047 l 1
 113 3072 l 1
 926 3072 l 1
 926 0 l 1
 456 0 l 1
 456 3047 l 1
EndSplineSet
EndChar

StartChar: l
Encoding: 108 108 49
GlifName: l
Width: 1378
VWidth: 4730
Flags: HMW
LayerCount: 2
Fore
SplineSet
113 25 m 1
 1268 25 l 1
 1268 0 l 1
 113 0 l 1
 113 25 l 1
456 3047 m 1
 113 3047 l 1
 113 3072 l 1
 926 3072 l 1
 926 0 l 1
 456 0 l 1
 456 3047 l 1
EndSplineSet
EndChar

StartChar: m
Encoding: 109 109 50
GlifName: m
Width: 3548
VWidth: 4730
Flags: HMW
LayerCount: 2
Fore
SplineSet
2010 1307 m 2
 2010 0 l 1
 1542 0 l 1
 1542 1278 l 2
 1542 1622 1526 1846 1336 1846 c 0
 948 1846 842 1292 842 918 c 1
 822 905 l 1
 822 1298 895 1925 1461 1925 c 0
 1879 1925 2010 1663 2010 1307 c 2
113 25 m 1
 1067 25 l 1
 1067 0 l 1
 113 0 l 1
 113 25 l 1
1317 25 m 1
 2234 25 l 1
 2234 0 l 1
 1317 0 l 1
 1317 25 l 1
2484 25 m 1
 3437 25 l 1
 3437 0 l 1
 2484 0 l 1
 2484 25 l 1
374 1859 m 1
 113 1859 l 1
 113 1884 l 1
 842 1884 l 1
 842 0 l 1
 374 0 l 1
 374 1859 l 1
3177 1307 m 2
 3177 0 l 1
 2708 0 l 1
 2708 1278 l 2
 2708 1622 2690 1846 2500 1846 c 0
 2110 1846 2010 1292 2010 918 c 1
 1990 905 l 1
 1990 1298 2057 1925 2625 1925 c 0
 3043 1925 3177 1663 3177 1307 c 2
EndSplineSet
EndChar

StartChar: n
Encoding: 110 110 51
GlifName: n
Width: 2462
VWidth: 4730
Flags: HMW
LayerCount: 2
Fore
SplineSet
1622 1276 m 2
 1622 1620 1594 1845 1394 1845 c 0
 942 1845 844 1278 844 914 c 1
 824 902 l 1
 824 1295 898 1925 1512 1925 c 0
 1980 1925 2092 1663 2092 1307 c 2
 2092 0 l 1
 1622 0 l 1
 1622 1276 l 2
1394 25 m 1
 2352 25 l 1
 2352 0 l 1
 1394 0 l 1
 1394 25 l 1
113 25 m 1
 1073 25 l 1
 1073 0 l 1
 113 0 l 1
 113 25 l 1
374 1859 m 1
 113 1859 l 1
 113 1884 l 1
 844 1884 l 1
 844 0 l 1
 374 0 l 1
 374 1859 l 1
EndSplineSet
EndChar

StartChar: o
Encoding: 111 111 52
GlifName: o
Width: 2286
VWidth: 4730
Flags: HMW
LayerCount: 2
Fore
SplineSet
696 942 m 0
 696 506 770 -15 1144 -15 c 0
 1518 -15 1592 506 1592 942 c 0
 1592 1378 1518 1899 1144 1899 c 0
 770 1899 696 1378 696 942 c 0
175 942 m 0
 175 1474 546 1925 1144 1925 c 0
 1742 1925 2113 1474 2113 942 c 0
 2113 410 1742 -41 1144 -41 c 0
 546 -41 175 410 175 942 c 0
EndSplineSet
EndChar

StartChar: p
Encoding: 112 112 53
GlifName: p
Width: 2522
VWidth: 4730
Flags: HMW
LayerCount: 2
Fore
SplineSet
821 942 m 0
 821 1552 1062 1921 1484 1921 c 0
 1928 1921 2350 1556 2350 942 c 0
 2350 328 1928 -41 1484 -41 c 0
 1062 -41 821 332 821 942 c 0
844 942 m 0
 844 328 1106 16 1388 16 c 0
 1679 16 1809 378 1809 942 c 0
 1809 1506 1680 1864 1389 1864 c 0
 1105 1864 844 1556 844 942 c 0
113 -999 m 1
 1104 -999 l 1
 1104 -1024 l 1
 113 -1024 l 1
 113 -999 l 1
374 1859 m 1
 113 1859 l 1
 113 1884 l 1
 844 1884 l 1
 844 -1024 l 1
 374 -1024 l 1
 374 1859 l 1
EndSplineSet
EndChar

StartChar: q
Encoding: 113 113 54
GlifName: q
Width: 2522
VWidth: 4730
Flags: HMW
LayerCount: 2
Fore
SplineSet
1703 940 m 0
 1703 330 1464 -38 1042 -38 c 0
 598 -38 175 326 175 940 c 0
 175 1554 598 1924 1042 1924 c 0
 1464 1924 1703 1550 1703 940 c 0
1680 940 m 0
 1680 1554 1420 1866 1136 1866 c 0
 848 1866 717 1504 717 940 c 0
 717 376 848 20 1136 20 c 0
 1425 20 1680 326 1680 940 c 0
2412 -999 m 1
 2412 -1024 l 1
 1420 -1024 l 1
 1420 -999 l 1
 2412 -999 l 1
2412 1884 m 1
 2412 1859 l 1
 2152 1859 l 1
 2152 -1024 l 1
 1680 -1024 l 1
 1680 1884 l 1
 2412 1884 l 1
EndSplineSet
EndChar

StartChar: r
Encoding: 114 114 55
GlifName: r
Width: 1875
VWidth: 4730
Flags: HMW
LayerCount: 2
Fore
SplineSet
1732 1680 m 1
 1670 1826 1514 1898 1372 1898 c 0
 924 1898 842 1369 842 907 c 1
 821 907 l 1
 821 1403 904 1925 1374 1925 c 0
 1586 1925 1790 1773 1790 1547 c 0
 1790 1383 1686 1246 1501 1246 c 0
 1335 1246 1208 1344 1208 1520 c 0
 1208 1783 1564 1904 1732 1680 c 1
113 25 m 1
 1106 25 l 1
 1106 0 l 1
 113 0 l 1
 113 25 l 1
374 1859 m 1
 113 1859 l 1
 113 1884 l 1
 842 1884 l 1
 842 0 l 1
 374 0 l 1
 374 1859 l 1
EndSplineSet
EndChar

StartChar: s
Encoding: 115 115 56
GlifName: s
Width: 1833
VWidth: 4730
Flags: HMW
LayerCount: 2
Fore
SplineSet
1466 1544 m 1
 1422 1619 1365 1683 1304 1741 c 1
 1522 1925 l 1
 1545 1925 l 1
 1545 1352 l 1
 1525 1352 l 1
 1515 1420 1498 1483 1466 1544 c 1
1542 1352 m 1
 1520 1352 l 1
 1476 1610 1222 1894 844 1894 c 0
 620 1894 454 1788 454 1610 c 0
 454 1153 1678 1332 1678 590 c 0
 1678 194 1348 -41 962 -41 c 0
 568 -41 257 217 196 567 c 1
 218 567 l 1
 280 232 588 -12 942 -12 c 0
 1192 -12 1413 92 1413 334 c 0
 1413 816 238 579 238 1354 c 0
 238 1647 451 1921 840 1921 c 0
 1240 1921 1501 1622 1542 1352 c 1
214 -41 m 1
 192 -41 l 1
 192 567 l 1
 215 567 l 1
 221 477 250 405 280 352 c 1
 340 262 388 205 438 158 c 1
 214 -41 l 1
EndSplineSet
EndChar

StartChar: t
Encoding: 116 116 57
GlifName: t
Width: 1449
VWidth: 4730
Flags: HMW
LayerCount: 2
Fore
SplineSet
72 1884 m 1
 1276 1884 l 1
 1276 1859 l 1
 72 1859 l 1
 72 1884 l 1
1398 404 m 1
 1298 150 1087 -29 795 -29 c 0
 428 -29 367 210 367 466 c 2
 367 2294 l 1
 521 2294 725 2345 838 2417 c 1
 838 332 l 2
 838 127 883 63 994 63 c 0
 1135 63 1292 214 1376 414 c 1
 1398 404 l 1
EndSplineSet
EndChar

StartChar: u
Encoding: 117 117 58
GlifName: u
Width: 2464
VWidth: 4730
Flags: HMW
LayerCount: 2
Fore
SplineSet
844 1884 m 1
 844 608 l 2
 844 264 872 39 1072 39 c 0
 1524 39 1622 606 1622 970 c 1
 1643 982 l 1
 1643 589 1568 -41 954 -41 c 0
 486 -41 374 222 374 578 c 2
 374 1859 l 1
 113 1859 l 1
 113 1884 l 1
 844 1884 l 1
2094 25 m 1
 2354 25 l 1
 2354 0 l 1
 1622 0 l 1
 1622 1859 l 1
 1346 1859 l 1
 1346 1884 l 1
 2094 1884 l 1
 2094 25 l 1
EndSplineSet
EndChar

StartChar: v
Encoding: 118 118 59
GlifName: v
Width: 2304
VWidth: 4730
Flags: HMW
LayerCount: 2
Fore
SplineSet
2243 1859 m 1
 1512 1859 l 1
 1512 1884 l 1
 2243 1884 l 1
 2243 1859 l 1
1124 1859 m 1
 36 1859 l 1
 36 1884 l 1
 1124 1884 l 1
 1124 1859 l 1
1324 454 m 1
 1910 1884 l 1
 1942 1884 l 1
 1154 -41 l 1
 1056 -41 l 1
 266 1884 l 1
 788 1884 l 1
 1324 454 l 1
EndSplineSet
EndChar

StartChar: w
Encoding: 119 119 60
GlifName: w
Width: 3262
VWidth: 4730
Flags: HMW
LayerCount: 2
Fore
SplineSet
1104 1859 m 1
 36 1859 l 1
 36 1884 l 1
 1104 1884 l 1
 1104 1859 l 1
3202 1859 m 1
 2396 1859 l 1
 2396 1884 l 1
 3202 1884 l 1
 3202 1859 l 1
1181 486 m 1
 1789 1925 l 1
 1948 1925 l 1
 2370 568 l 1
 2810 1884 l 1
 2841 1884 l 1
 2197 -41 l 1
 2098 -41 l 1
 1588 1377 l 1
 990 -41 l 1
 890 -41 l 1
 268 1884 l 1
 760 1884 l 1
 1181 486 l 1
EndSplineSet
EndChar

StartChar: x
Encoding: 120 120 61
GlifName: x
Width: 2335
VWidth: 4730
Flags: HMW
LayerCount: 2
Fore
SplineSet
1284 25 m 1
 2261 25 l 1
 2261 0 l 1
 1284 0 l 1
 1284 25 l 1
76 25 m 1
 800 25 l 1
 800 0 l 1
 76 0 l 1
 76 25 l 1
1153 1859 m 1
 107 1859 l 1
 107 1884 l 1
 1153 1884 l 1
 1153 1859 l 1
2204 1859 m 1
 1512 1859 l 1
 1512 1884 l 1
 2204 1884 l 1
 2204 1859 l 1
2102 0 m 1
 1542 0 l 1
 306 1884 l 1
 856 1884 l 1
 2102 0 l 1
370 0 m 1
 336 0 l 1
 1872 1884 l 1
 1904 1884 l 1
 370 0 l 1
EndSplineSet
EndChar

StartChar: y
Encoding: 121 121 62
GlifName: y
Width: 2345
VWidth: 4730
Flags: HMW
LayerCount: 2
Fore
SplineSet
1138 1859 m 1
 25 1859 l 1
 25 1884 l 1
 1138 1884 l 1
 1138 1859 l 1
2352 1859 m 1
 1674 1859 l 1
 1674 1884 l 1
 2352 1884 l 1
 2352 1859 l 1
1472 478 m 1
 1214 -93 l 1
 230 1884 l 1
 774 1884 l 1
 1472 478 l 1
883 -823 m 1
 2057 1884 l 1
 2088 1884 l 1
 924 -800 l 2
 851 -962 769 -1068 603 -1068 c 0
 470 -1068 329 -981 329 -805 c 0
 329 -649 443 -528 605 -528 c 0
 756 -528 879 -648 883 -823 c 1
EndSplineSet
EndChar

StartChar: z
Encoding: 122 122 63
GlifName: z
Width: 1942
VWidth: 4730
Flags: HMW
LayerCount: 2
Fore
SplineSet
850 1859 m 2
 424 1859 263 1594 232 1180 c 1
 208 1180 l 1
 208 1884 l 1
 1763 1884 l 1
 1763 1859 l 1
 636 25 l 1
 1092 25 l 2
 1612 25 1773 246 1804 754 c 1
 1829 754 l 1
 1829 0 l 1
 93 0 l 1
 93 25 l 1
 1218 1859 l 1
 850 1859 l 2
EndSplineSet
EndChar

StartChar: comma
Encoding: 44 44 65
GlifName: comma
Width: 1003
Flags: HMW
LayerCount: 2
Fore
SplineSet
164 262 m 0
 164 428 313 565 500 565 c 0
 691 565 848 408 848 78 c 0
 848 -270 586 -614 156 -614 c 1
 156 -590 l 1
 567 -590 900 -235 804 254 c 1
 780 103 653 -41 475 -41 c 0
 275 -41 164 96 164 262 c 0
EndSplineSet
EndChar

StartChar: exclam
Encoding: 33 33 67
GlifName: exclam
Width: 1419
Flags: HMW
LayerCount: 2
Fore
SplineSet
1008 2658 m 0
 962 1998 720 1517 720 954 c 1
 694 954 l 1
 694 1517 450 1998 404 2658 c 0
 403 2686 404 2712 404 2736 c 0
 404 2944 482 3104 706 3104 c 0
 930 3104 1014 2944 1014 2736 c 0
 1014 2712 1009 2686 1008 2658 c 0
EndSplineSet
Refer: 1 46 N 1 0 0 1 240 0 2
EndChar

StartChar: quotesingle
Encoding: 39 39 70
GlifName: quotesingle
Width: 941
Flags: HMW
LayerCount: 2
Fore
SplineSet
733 2748 m 24
 687 2440 484 2378 484 1928 c 1
 458 1928 l 1
 458 2378 254 2440 208 2748 c 24
 204 2776 204 2798 204 2822 c 0
 204 3002 322 3112 472 3112 c 0
 622 3112 737 3002 737 2822 c 0
 737 2798 737 2776 733 2748 c 24
EndSplineSet
EndChar

StartChar: question
Encoding: 63 63 75
GlifName: question
Width: 2323
Flags: HMW
LayerCount: 2
Fore
SplineSet
1009 1450 m 1
 1416 1550 1583 1913 1583 2294 c 0
 1583 2679 1517 3078 1071 3078 c 0
 641 3078 322 2737 290 2506 c 1
 312 2561 399 2642 531 2642 c 0
 681 2642 816 2544 816 2376 c 0
 816 2186 673 2096 530 2096 c 0
 366 2096 246 2206 246 2400 c 0
 246 2746 631 3113 1131 3113 c 0
 1729 3113 2120 2786 2120 2294 c 0
 2120 1823 1664 1471 1035 1434 c 1
 1035 928 l 1
 1009 928 l 1
 1009 1450 l 1
EndSplineSet
Refer: 1 46 N 1 0 0 1 590 0 2
EndChar

StartChar: parenleft
Encoding: 40 40 76
GlifName: parenleft
Width: 1503
Flags: HMW
LayerCount: 2
Fore
SplineSet
1438 -677 m 1
 1426 -696 l 1
 758 -410 266 378 266 1332 c 0
 266 2286 758 2990 1426 3276 c 1
 1438 3257 l 1
 981 2960 778 2118 778 1332 c 0
 778 546 981 -380 1438 -677 c 1
EndSplineSet
EndChar

StartChar: at
Encoding: 64 64 79
GlifName: at
Width: 4136
VWidth: 4730
Flags: HMW
LayerCount: 2
Fore
SplineSet
2456 1446 m 0
 2456 830 2137 286 1697 286 c 0
 1362 286 1082 516 1082 942 c 0
 1082 1556 1542 2166 2032 2166 c 0
 2383 2166 2456 1782 2456 1446 c 0
2433 1418 m 0
 2433 1590 2417 2066 2145 2066 c 0
 1883 2066 1618 1446 1618 938 c 0
 1618 664 1678 388 1852 388 c 0
 2136 388 2433 888 2433 1418 c 0
2346 860 m 2
 2640 2130 l 1
 3131 2130 l 1
 2832 846 l 2
 2812 756 2660 338 2942 338 c 0
 3475 338 3887 970 3887 1642 c 0
 3887 2380 3420 3211 2395 3211 c 0
 1216 3211 251 2132 251 864 c 0
 251 -405 981 -851 1716 -851 c 0
 2381 -851 2850 -645 3196 -246 c 1
 3216 -262 l 1
 2872 -664 2384 -876 1716 -876 c 0
 966 -876 226 -424 226 864 c 0
 226 2146 1196 3236 2396 3236 c 0
 3432 3236 3912 2392 3912 1642 c 0
 3912 976 3531 278 2800 278 c 0
 2374 278 2288 606 2346 860 c 2
EndSplineSet
EndChar

StartChar: dollar
Encoding: 36 36 80
GlifName: dollar
Width: 2354
Flags: HMW
LayerCount: 2
Fore
SplineSet
1302 3400 m 1
 1328 3400 l 1
 1328 -328 l 1
 1302 -328 l 1
 1302 3400 l 1
960 3400 m 1
 986 3400 l 1
 986 -328 l 1
 960 -328 l 1
 960 3400 l 1
2052 2546 m 1
 2008 2840 1668 3085 1240 3085 c 0
 847 3085 594 2838 594 2527 c 0
 594 1784 2191 2017 2191 880 c 0
 2191 307 1778 -61 1170 -61 c 0
 433 -61 118 328 118 614 c 0
 118 822 240 981 440 981 c 0
 584 981 734 870 734 670 c 0
 734 486 573 382 423 382 c 0
 303 382 198 456 156 536 c 1
 200 304 486 -37 1158 -37 c 0
 1592 -37 1834 244 1834 627 c 0
 1834 1452 236 1168 236 2294 c 0
 236 2796 726 3113 1222 3113 c 0
 1702 3113 2089 2830 2089 2478 c 0
 2089 2270 1972 2122 1772 2122 c 0
 1628 2122 1479 2220 1479 2418 c 0
 1479 2599 1628 2710 1778 2710 c 0
 1898 2710 2008 2638 2052 2546 c 1
EndSplineSet
EndChar

StartChar: numbersign
Encoding: 35 35 81
GlifName: numbersign
Width: 2587
Flags: HMW
LayerCount: 2
Fore
SplineSet
122 1036 m 1
 2342 1036 l 1
 2342 1010 l 1
 122 1010 l 1
 122 1036 l 1
246 2124 m 1
 2466 2124 l 1
 2466 2098 l 1
 246 2098 l 1
 246 2124 l 1
1854 3088 m 1
 1879 3092 l 1
 1470 -20 l 1
 1445 -24 l 1
 1854 3088 l 1
1079 3092 m 1
 1104 3092 l 1
 694 -20 l 1
 669 -20 l 1
 1079 3092 l 1
EndSplineSet
EndChar

StartChar: slash
Encoding: 47 47 82
GlifName: slash
Width: 2133
Flags: HMW
LayerCount: 2
Fore
SplineSet
1947 3194 m 1
 1972 3194 l 1
 189 -614 l 1
 164 -614 l 1
 1947 3194 l 1
EndSplineSet
EndChar

StartChar: percent
Encoding: 37 37 83
GlifName: percent
Width: 4136
Flags: HMW
LayerCount: 2
Fore
SplineSet
2816 860 m 0
 2816 373 2882 -15 3134 -15 c 0
 3386 -15 3451 373 3451 860 c 0
 3451 1347 3386 1737 3134 1737 c 0
 2882 1737 2816 1347 2816 860 c 0
2273 860 m 0
 2273 1446 2672 1762 3134 1762 c 0
 3596 1762 3994 1446 3994 860 c 0
 3994 274 3514 -40 3134 -40 c 0
 2672 -40 2273 274 2273 860 c 0
3128 3072 m 1
 3158 3072 l 1
 1008 0 l 1
 978 0 l 1
 3128 3072 l 1
686 2212 m 0
 686 1725 752 1335 1004 1335 c 0
 1256 1335 1320 1725 1320 2212 c 0
 1320 2699 1256 3087 1004 3087 c 0
 752 3087 686 2699 686 2212 c 0
144 2212 m 0
 144 2798 542 3112 1004 3112 c 0
 1466 3112 1864 2798 1864 2212 c 0
 1864 1626 1384 1310 1004 1310 c 0
 542 1310 144 1626 144 2212 c 0
EndSplineSet
EndChar

StartChar: hyphen
Encoding: 45 45 85
GlifName: hyphen
Width: 1474
Flags: HMW
LayerCount: 2
Fore
SplineSet
246 1139 m 1
 1228 1139 l 1
 1228 1113 l 1
 246 1113 l 1
 246 1139 l 1
EndSplineSet
EndChar

StartChar: plus
Encoding: 43 43 87
GlifName: plus
Width: 2170
Flags: HMW
LayerCount: 2
Fore
SplineSet
1073 450 m 1
 1073 2130 l 1
 1098 2130 l 1
 1098 450 l 1
 1073 450 l 1
246 1307 m 1
 1926 1307 l 1
 1926 1281 l 1
 246 1281 l 1
 246 1307 l 1
EndSplineSet
EndChar

StartChar: less
Encoding: 60 60 89
GlifName: less
Width: 2292
Flags: HMW
LayerCount: 2
Fore
SplineSet
246 1579 m 1
 246 1604 l 1
 2048 2464 l 1
 2048 2438 l 1
 246 1579 l 1
246 1570 m 1
 246 1597 l 1
 2048 736 l 1
 2048 710 l 1
 246 1570 l 1
EndSplineSet
EndChar

StartChar: backslash
Encoding: 92 92 91
GlifName: backslash
Width: 2133
Flags: HMW
LayerCount: 2
Fore
SplineSet
191 3194 m 1
 1972 -614 l 1
 1945 -614 l 1
 164 3194 l 1
 191 3194 l 1
EndSplineSet
EndChar

StartChar: bracketleft
Encoding: 91 91 92
GlifName: bracketleft
Width: 1391
Flags: HMW
LayerCount: 2
Fore
SplineSet
1270 -614 m 1
 226 -614 l 1
 226 -589 l 1
 1270 -589 l 1
 1270 -614 l 1
1270 3169 m 1
 226 3169 l 1
 226 3194 l 1
 1270 3194 l 1
 1270 3169 l 1
717 3194 m 1
 717 -614 l 1
 226 -614 l 1
 226 3194 l 1
 717 3194 l 1
EndSplineSet
EndChar

StartChar: braceleft
Encoding: 123 123 93
GlifName: braceleft
Width: 1236
VWidth: 4730
Flags: HMW
LayerCount: 2
Fore
SplineSet
1114 3194 m 1
 1114 3169 l 1
 860 3169 729 2908 729 2650 c 0
 729 2360 868 2186 868 1796 c 0
 868 1456 652 1370 226 1288 c 1
 226 1305 l 1
 348 1345 472 1454 472 1622 c 0
 472 1880 226 2066 226 2606 c 0
 226 2992 428 3194 1114 3194 c 1
1114 -614 m 1
 428 -614 226 -406 226 -20 c 0
 226 520 472 704 472 962 c 0
 472 1130 348 1237 226 1277 c 1
 226 1296 l 1
 652 1214 868 1128 868 788 c 0
 868 398 729 224 729 -66 c 0
 729 -324 860 -589 1114 -589 c 1
 1114 -614 l 1
EndSplineSet
EndChar

StartChar: bar
Encoding: 124 124 96
GlifName: bar
Width: 949
VWidth: 4730
Flags: HMW
LayerCount: 2
Fore
SplineSet
462 3194 m 1
 488 3194 l 1
 488 -1024 l 1
 462 -1024 l 1
 462 3194 l 1
EndSplineSet
EndChar

StartChar: cent
Encoding: 162 162 98
GlifName: cent
Width: 2114
VWidth: 4730
Flags: HMW
LayerCount: 2
Fore
SplineSet
1166 2274 m 1
 1166 -348 l 1
 1142 -348 l 1
 1142 2274 l 1
 1166 2274 l 1
EndSplineSet
Refer: 40 99 N 1 0 0 1 0 0 2
EndChar

StartChar: sterling
Encoding: 163 163 99
GlifName: sterling
Width: 2623
VWidth: 4730
Flags: HMW
LayerCount: 2
Fore
SplineSet
2528 766 m 1
 2528 70 2216 -123 1800 -123 c 0
 1239 -123 1024 123 766 123 c 0
 598 123 365 41 324 -82 c 1
 307 -82 l 1
 379 221 641 520 1012 520 c 0
 1402 520 1573 381 1863 381 c 0
 2137 381 2502 430 2502 766 c 1
 2528 766 l 1
1905 1652 m 1
 1905 1626 l 1
 61 1626 l 1
 61 1652 l 1
 1905 1652 l 1
442 2253 m 0
 442 2826 883 3113 1573 3113 c 0
 2237 3113 2548 2752 2548 2416 c 0
 2548 2217 2412 2095 2254 2095 c 0
 2111 2095 1950 2191 1950 2386 c 0
 1950 2560 2094 2673 2244 2673 c 0
 2380 2673 2458 2579 2486 2532 c 1
 2452 2784 2179 3078 1628 3078 c 0
 1130 3078 1020 2669 1020 2345 c 0
 1020 1939 1249 1710 1249 1382 c 0
 1249 634 268 624 321 -82 c 1
 295 -82 l 1
 217 487 774 807 774 1069 c 0
 774 1536 442 1782 442 2253 c 0
EndSplineSet
EndChar

StartChar: section
Encoding: 167 167 101
GlifName: section
Width: 1890
VWidth: 4730
Flags: HMW
LayerCount: 2
Fore
SplineSet
498 2664 m 0
 498 2200 1750 2209 1750 1582 c 0
 1750 1308 1498 1193 1288 1057 c 1
 1280 1075 l 1
 1405 1159 1461 1217 1461 1345 c 0
 1461 1841 264 1725 264 2470 c 0
 264 2896 628 3113 976 3113 c 0
 1326 3113 1709 2958 1709 2524 c 0
 1709 2346 1596 2209 1432 2209 c 0
 1288 2209 1181 2310 1181 2468 c 0
 1181 2610 1304 2722 1444 2722 c 0
 1542 2722 1636 2658 1666 2598 c 1
 1631 2940 1308 3086 976 3086 c 0
 712 3086 498 2901 498 2664 c 0
1732 664 m 0
 1732 238 1400 -41 908 -41 c 0
 548 -41 123 104 123 558 c 0
 123 736 236 872 400 872 c 0
 544 872 652 770 652 612 c 0
 652 470 528 364 388 364 c 0
 282 364 190 435 165 495 c 1
 197 122 566 -14 908 -14 c 0
 1310 -14 1458 250 1458 434 c 0
 1458 898 176 848 176 1444 c 0
 176 1750 418 1932 568 2038 c 1
 603 2038 l 1
 531 1989 475 1916 475 1766 c 0
 475 1270 1732 1409 1732 664 c 0
EndSplineSet
EndChar

StartChar: asciitilde
Encoding: 126 126 104
GlifName: asciitilde
Width: 2818
VWidth: 4730
Flags: HMW
LayerCount: 2
Fore
SplineSet
860 1760 m 0
 644 1760 435 1668 435 1404 c 1
 410 1404 l 1
 410 1876 676 2120 1020 2120 c 0
 1470 2120 1514 1734 1916 1734 c 0
 2174 1734 2383 1824 2383 2088 c 1
 2408 2088 l 1
 2408 1616 2142 1374 1798 1374 c 0
 1278 1374 1291 1760 860 1760 c 0
EndSplineSet
EndChar

StartChar: copyright
Encoding: 169 169 105
GlifName: copyright
Width: 3562
Flags: HMW
LayerCount: 2
Fore
SplineSet
204 1536 m 0
 204 2408 910 3112 1782 3112 c 0
 2654 3112 3358 2408 3358 1536 c 0
 3358 664 2654 -40 1782 -40 c 0
 910 -40 204 664 204 1536 c 0
229 1536 m 0
 229 681 927 -15 1782 -15 c 0
 2637 -15 3333 681 3333 1536 c 0
 3333 2391 2637 3087 1782 3087 c 0
 927 3087 229 2391 229 1536 c 0
EndSplineSet
Refer: 14 67 N 0.6 0 0 0.6 838 614 2
EndChar

StartChar: registered
Encoding: 174 174 106
GlifName: registered
Width: 3562
Flags: HMW
LayerCount: 2
Fore
SplineSet
204 1536 m 0
 204 2408 910 3112 1782 3112 c 0
 2654 3112 3358 2408 3358 1536 c 0
 3358 664 2654 -40 1782 -40 c 0
 910 -40 204 664 204 1536 c 0
229 1536 m 0
 229 681 927 -15 1782 -15 c 0
 2637 -15 3333 681 3333 1536 c 0
 3333 2391 2637 3087 1782 3087 c 0
 927 3087 229 2391 229 1536 c 0
EndSplineSet
Refer: 29 82 N 0.6 0 0 0.6 938 606 2
EndChar

StartChar: logicalnot
Encoding: 172 172 107
GlifName: logicalnot
Width: 1990
Flags: HMW
LayerCount: 2
Fore
SplineSet
1719 2493 m 1
 246 2493 l 1
 246 2520 l 1
 1744 2520 l 1
 1744 1692 l 1
 1719 1692 l 1
 1719 2493 l 1
EndSplineSet
EndChar

StartChar: guillemotleft
Encoding: 171 171 108
GlifName: guillemotleft
Width: 2907
Flags: HMW
LayerCount: 2
Fore
SplineSet
1888 1590 m 1
 2676 607 l 1
 2662 594 l 1
 1250 1545 l 1
 1250 1629 l 1
 2662 2580 l 1
 2676 2568 l 1
 1888 1590 l 1
720 1590 m 1
 1528 607 l 1
 1516 594 l 1
 102 1545 l 1
 102 1629 l 1
 1516 2580 l 1
 1528 2568 l 1
 720 1590 l 1
EndSplineSet
EndChar

StartChar: mu
Encoding: 181 181 111
GlifName: mu
Width: 2464
VWidth: 4730
Flags: HMW
LayerCount: 2
Fore
SplineSet
1055 -504 m 0
 1191 -504 1297 -622 1297 -778 c 0
 1297 -938 1212 -1064 912 -1064 c 0
 626 -1064 379 -864 379 -496 c 2
 379 1314 l 1
 404 1314 l 1
 404 -496 l 2
 404 -848 644 -1075 992 -1034 c 1
 992 -1040 l 1
 892 -1001 809 -903 809 -757 c 0
 809 -621 919 -504 1055 -504 c 0
EndSplineSet
Refer: 58 117 N 1 0 0 1 0 0 2
EndChar

StartChar: asciicircum
Encoding: 94 94 113
GlifName: asciicircum
Width: 2232
Flags: HMW
LayerCount: 2
Fore
SplineSet
1114 2962 m 1
 427 2566 l 1
 410 2580 l 1
 984 3154 l 1
 1250 3154 l 1
 1822 2580 l 1
 1805 2567 l 1
 1114 2962 l 1
EndSplineSet
EndChar

StartChar: degree
Encoding: 176 176 115
GlifName: degree
Width: 1310
Flags: HMW
LayerCount: 2
Fore
SplineSet
164 2786 m 0
 164 3056 386 3276 656 3276 c 0
 926 3276 1146 3056 1146 2786 c 0
 1146 2516 926 2294 656 2294 c 0
 386 2294 164 2516 164 2786 c 0
263 2786 m 0
 263 2562 432 2393 656 2393 c 0
 880 2393 1047 2562 1047 2786 c 0
 1047 3010 880 3177 656 3177 c 0
 432 3177 263 3010 263 2786 c 0
EndSplineSet
EndChar

StartChar: onequarter
Encoding: 188 188 119
GlifName: onequarter
Width: 2685
Flags: HMW
LayerCount: 2
Fore
SplineSet
2138 2662 m 1
 2163 2662 l 1
 188 -410 l 1
 163 -410 l 1
 2138 2662 l 1
EndSplineSet
Refer: 6 52 N 0.6 0 0 0.6 1106 -422 2
Refer: 3 49 N 0.6 0 0 0.6 -32 1458 2
EndChar

StartChar: onehalf
Encoding: 189 189 120
GlifName: onehalf
Width: 2805
Flags: HMW
LayerCount: 2
Fore
SplineSet
2136 2662 m 1
 2162 2662 l 1
 186 -410 l 1
 161 -410 l 1
 2136 2662 l 1
EndSplineSet
Refer: 4 50 N 0.6 0 0 0.6 1396 -414 2
Refer: 3 49 N 0.6 0 0 0.6 -32 1458 2
EndChar

StartChar: threequarters
Encoding: 190 190 121
GlifName: threequarters
Width: 2931
Flags: HMW
LayerCount: 2
Fore
SplineSet
2382 2662 m 1
 2408 2662 l 1
 432 -410 l 1
 407 -410 l 1
 2382 2662 l 1
EndSplineSet
Refer: 5 51 N 0.6 0 0 0.6 20 1450 2
Refer: 6 52 N 0.6 0 0 0.6 1352 -422 2
EndChar

StartChar: grave
Encoding: 96 96 123
GlifName: grave
Width: 1647
Flags: HMW
LayerCount: 2
Fore
SplineSet
430 2912 m 2
 322 2902 226 2984 226 3092 c 0
 226 3200 336 3315 472 3269 c 2
 1410 2972 l 1
 1403 2948 l 1
 430 2912 l 2
EndSplineSet
EndChar

StartChar: acute
Encoding: 180 180 124
GlifName: acute
Width: 1647
Flags: HMW
LayerCount: 2
Fore
SplineSet
1218 2912 m 2
 246 2948 l 1
 238 2972 l 1
 1178 3269 l 2
 1314 3315 1424 3200 1424 3092 c 0
 1424 2984 1326 2902 1218 2912 c 2
EndSplineSet
EndChar

StartChar: cedilla
Encoding: 184 184 128
GlifName: cedilla
Width: 2252
Flags: HMW
LayerCount: 2
Fore
SplineSet
1307 -572 m 0
 1307 -358 1124 -324 888 -324 c 1
 1256 168 l 1
 1289 168 l 1
 1043 -160 l 1
 1387 -172 1679 -262 1679 -492 c 0
 1679 -696 1484 -854 926 -854 c 1
 926 -828 l 1
 1168 -828 1307 -719 1307 -572 c 0
EndSplineSet
EndChar

StartChar: divide
Encoding: 247 247 131
GlifName: divide
Width: 2394
Flags: HMW
LayerCount: 2
Fore
SplineSet
194 1631 m 1
 2200 1631 l 1
 2200 1605 l 1
 194 1605 l 1
 194 1631 l 1
890 829 m 0
 890 997 1030 1136 1198 1136 c 0
 1366 1136 1506 997 1506 829 c 0
 1506 661 1366 522 1198 522 c 0
 1030 522 890 661 890 829 c 0
890 2345 m 0
 890 2513 1030 2652 1198 2652 c 0
 1366 2652 1506 2513 1506 2345 c 0
 1506 2177 1366 2038 1198 2038 c 0
 1030 2038 890 2177 890 2345 c 0
EndSplineSet
EndChar

StartChar: ring
Encoding: 730 730 271
GlifName: ring
Width: 1310
VWidth: 0
Flags: HMW
LayerCount: 2
Fore
SplineSet
266 2786 m 0
 266 2994 426 3154 656 3154 c 0
 886 3154 1044 2994 1044 2786 c 0
 1044 2578 886 2416 656 2416 c 0
 426 2416 266 2578 266 2786 c 0
462 2786 m 0
 462 2598 502 2441 656 2441 c 0
 810 2441 848 2598 848 2786 c 0
 848 2974 810 3129 656 3129 c 0
 502 3129 462 2974 462 2786 c 0
EndSplineSet
EndChar

StartChar: tilde
Encoding: 732 732 272
GlifName: tilde
Width: 1834
VWidth: 0
Flags: HMW
LayerCount: 2
Fore
SplineSet
502 2710 m 0
 360 2710 229 2630 229 2448 c 1
 204 2448 l 1
 204 2796 382 3008 614 3008 c 0
 928 3008 1088 2685 1333 2685 c 0
 1503 2685 1605 2766 1605 2948 c 1
 1630 2948 l 1
 1630 2558 1534 2386 1262 2386 c 0
 960 2386 775 2710 502 2710 c 0
EndSplineSet
EndChar

StartChar: AE
Encoding: 198 198 274
GlifName: A_E_
Width: 4195
Flags: HMW
LayerCount: 2
Fore
SplineSet
2148 3072 m 1
 2176 3072 l 1
 462 0 l 1
 432 0 l 1
 2148 3072 l 1
62 25 m 1
 962 25 l 1
 962 0 l 1
 62 0 l 1
 62 25 l 1
1010 1016 m 1
 2192 1016 l 1
 2192 991 l 1
 1008 991 l 1
 1010 1016 l 1
2150 3072 m 1
 2663 3072 l 1
 2663 0 l 1
 2150 0 l 1
 2150 3072 l 1
2150 3072 m 1
 4032 3072 l 1
 4032 2232 l 1
 4007 2232 l 1
 3977 2670 3724 3047 3256 3047 c 2
 2150 3047 l 1
 2150 3072 l 1
4074 0 m 1
 1782 0 l 1
 1782 25 l 1
 3216 25 l 2
 3766 25 4018 402 4048 922 c 1
 4074 922 l 1
 4074 0 l 1
3342 1108 m 1
 3312 1382 3090 1577 2856 1577 c 2
 2612 1577 l 1
 2612 1602 l 1
 2856 1602 l 2
 3090 1602 3312 1776 3342 2050 c 1
 3367 2050 l 1
 3367 1108 l 1
 3342 1108 l 1
EndSplineSet
EndChar

StartChar: ae
Encoding: 230 230 277
GlifName: ae
Width: 3267
VWidth: 4730
Flags: HMW
LayerCount: 2
Fore
SplineSet
287 1488 m 0
 287 1747 642 1917 1036 1917 c 0
 1568 1917 1694 1601 1694 1249 c 1
 1653 741 l 1
 1653 233 1326 -41 860 -41 c 0
 475 -41 143 99 143 463 c 0
 143 807 458 1048 1040 1048 c 2
 1528 1048 l 1
 1528 1022 l 1
 1112 1022 l 2
 832 1022 664 783 664 509 c 0
 664 235 762 -10 956 -10 c 0
 1158 -10 1314 296 1314 690 c 2
 1314 1249 l 2
 1314 1523 1269 1878 941 1878 c 0
 721 1878 530 1794 438 1704 c 1
 667 1792 844 1658 844 1496 c 0
 844 1322 684 1233 551 1233 c 0
 397 1233 287 1330 287 1488 c 0
2642 1060 m 1
 2638 1414 2602 1899 2288 1899 c 0
 1944 1899 1854 1429 1854 962 c 0
 1854 495 1957 -2 2375 -2 c 0
 2765 -2 3037 250 3140 586 c 1
 3166 586 l 1
 3060 230 2776 -41 2300 -41 c 0
 1774 -41 1424 318 1424 942 c 0
 1424 1566 1762 1925 2288 1925 c 0
 2898 1925 3162 1480 3162 1034 c 1
 1662 1034 l 1
 1662 1060 l 1
 2642 1060 l 1
EndSplineSet
EndChar

StartChar: perthousand
Encoding: 8240 8240 285
GlifName: perthousand
Width: 6102
Flags: HMW
LayerCount: 2
Fore
SplineSet
4782 860 m 0
 4782 373 4847 -17 5099 -17 c 0
 5351 -17 5416 373 5416 860 c 0
 5416 1347 5351 1739 5099 1739 c 0
 4847 1739 4782 1347 4782 860 c 0
4240 860 m 0
 4240 1446 4637 1762 5099 1762 c 0
 5561 1762 5960 1446 5960 860 c 0
 5960 274 5479 -40 5099 -40 c 0
 4637 -40 4240 274 4240 860 c 0
2816 860 m 0
 2816 373 2882 -17 3134 -17 c 0
 3386 -17 3451 373 3451 860 c 0
 3451 1347 3386 1739 3134 1739 c 0
 2882 1739 2816 1347 2816 860 c 0
2273 860 m 0
 2273 1446 2672 1762 3134 1762 c 0
 3596 1762 3994 1446 3994 860 c 0
 3994 274 3514 -40 3134 -40 c 0
 2672 -40 2273 274 2273 860 c 0
3130 3072 m 1
 3158 3072 l 1
 1008 0 l 1
 980 0 l 1
 3130 3072 l 1
686 2212 m 0
 686 1725 752 1333 1004 1333 c 0
 1256 1333 1320 1725 1320 2212 c 0
 1320 2699 1256 3089 1004 3089 c 0
 752 3089 686 2699 686 2212 c 0
144 2212 m 0
 144 2798 542 3112 1004 3112 c 0
 1466 3112 1864 2798 1864 2212 c 0
 1864 1626 1384 1310 1004 1310 c 0
 542 1310 144 1626 144 2212 c 0
EndSplineSet
EndChar

StartChar: uni2031
Encoding: 8241 8241 286
GlifName: uni2031
Width: 8098
Flags: HMW
LayerCount: 2
Fore
SplineSet
6779 860 m 0
 6779 373 6844 -17 7096 -17 c 0
 7348 -17 7414 373 7414 860 c 0
 7414 1347 7348 1739 7096 1739 c 0
 6844 1739 6779 1347 6779 860 c 0
6236 860 m 0
 6236 1446 6634 1762 7096 1762 c 0
 7558 1762 7956 1446 7956 860 c 0
 7956 274 7476 -40 7096 -40 c 0
 6634 -40 6236 274 6236 860 c 0
4782 860 m 0
 4782 373 4847 -17 5099 -17 c 0
 5351 -17 5416 373 5416 860 c 0
 5416 1347 5351 1739 5099 1739 c 0
 4847 1739 4782 1347 4782 860 c 0
4240 860 m 0
 4240 1446 4637 1762 5099 1762 c 0
 5561 1762 5960 1446 5960 860 c 0
 5960 274 5479 -40 5099 -40 c 0
 4637 -40 4240 274 4240 860 c 0
2816 860 m 0
 2816 373 2882 -17 3134 -17 c 0
 3386 -17 3451 373 3451 860 c 0
 3451 1347 3386 1739 3134 1739 c 0
 2882 1739 2816 1347 2816 860 c 0
2273 860 m 0
 2273 1446 2672 1762 3134 1762 c 0
 3596 1762 3994 1446 3994 860 c 0
 3994 274 3514 -40 3134 -40 c 0
 2672 -40 2273 274 2273 860 c 0
3130 3072 m 1
 3158 3072 l 1
 1008 0 l 1
 980 0 l 1
 3130 3072 l 1
686 2212 m 0
 686 1725 752 1333 1004 1333 c 0
 1256 1333 1320 1725 1320 2212 c 0
 1320 2699 1256 3089 1004 3089 c 0
 752 3089 686 2699 686 2212 c 0
144 2212 m 0
 144 2798 542 3112 1004 3112 c 0
 1466 3112 1864 2798 1864 2212 c 0
 1864 1626 1384 1310 1004 1310 c 0
 542 1310 144 1626 144 2212 c 0
EndSplineSet
EndChar

StartChar: uniFB00
Encoding: 64256 64256 290
GlifName: uniF_B_00
Width: 2849
VWidth: 4730
Flags: HMW
LayerCount: 2
Fore
SplineSet
93 25 m 1
 2630 25 l 1
 2630 0 l 1
 93 0 l 1
 93 25 l 1
93 1884 m 1
 2712 1884 l 1
 2712 1859 l 1
 93 1859 l 1
 93 1884 l 1
1957 2534 m 1
 1933 2684 1727 2882 1444 2882 c 0
 1112 2882 922 2527 922 2007 c 2
 922 0 l 1
 462 0 l 1
 462 1892 l 2
 462 2449 856 2908 1434 2908 c 0
 1778 2908 2014 2656 2014 2443 c 0
 2014 2255 1893 2148 1739 2148 c 0
 1606 2148 1458 2237 1458 2416 c 0
 1458 2594 1584 2682 1728 2682 c 0
 1839 2682 1935 2599 1957 2534 c 1
3079 2770 m 1
 3054 2913 2888 3086 2600 3086 c 0
 2272 3086 2152 2732 2152 2212 c 2
 2152 0 l 1
 1692 0 l 1
 1692 2097 l 2
 1692 2654 2027 3113 2590 3113 c 0
 2932 3113 3125 2889 3125 2676 c 0
 3125 2488 3004 2382 2850 2382 c 0
 2717 2382 2570 2470 2570 2649 c 0
 2570 2827 2701 2916 2844 2916 c 0
 2950 2916 3042 2856 3079 2770 c 1
EndSplineSet
Ligature2: "'liga' Standard Ligatures lookup 0-1" f f
LCarets2: 1 0
EndChar

StartChar: uniFB01
Encoding: 64257 64257 291
GlifName: uniF_B_01
Width: 2517
VWidth: 4730
Flags: HMW
LayerCount: 2
Fore
SplineSet
462 2097 m 2
 462 2665 834 3113 1498 3113 c 0
 1920 3113 2127 2895 2127 2650 c 0
 2127 2462 2006 2354 1852 2354 c 0
 1714 2354 1571 2446 1571 2617 c 0
 1571 2789 1702 2888 1845 2888 c 0
 1967 2888 2051 2817 2077 2738 c 1
 2039 2921 1866 3087 1498 3087 c 0
 1052 3087 922 2732 922 2212 c 2
 922 0 l 1
 462 0 l 1
 462 2097 l 2
93 25 m 1
 2397 25 l 1
 2397 0 l 1
 93 0 l 1
 93 25 l 1
1640 1859 m 1
 93 1859 l 1
 93 1884 l 1
 2111 1884 l 1
 2111 0 l 1
 1640 0 l 1
 1640 1859 l 1
EndSplineSet
Ligature2: "'liga' Standard Ligatures lookup 0-1" f i
LCarets2: 1 0
EndChar

StartChar: uniFB02
Encoding: 64258 64258 292
GlifName: uniF_B_02
Width: 2656
VWidth: 4730
Flags: HMW
LayerCount: 2
Fore
SplineSet
93 25 m 1
 2546 25 l 1
 2546 0 l 1
 93 0 l 1
 93 25 l 1
93 1884 m 1
 1483 1884 l 1
 1483 1859 l 1
 93 1859 l 1
 93 1884 l 1
1760 2990 m 1
 2232 3154 l 1
 2232 0 l 1
 1760 0 l 1
 1760 2990 l 1
1882 2736 m 1
 1861 2904 1695 3086 1400 3086 c 0
 1018 3086 922 2732 922 2212 c 2
 922 0 l 1
 462 0 l 1
 462 2097 l 2
 462 2654 826 3113 1389 3113 c 0
 1731 3113 1926 2893 1926 2653 c 0
 1926 2465 1804 2358 1650 2358 c 0
 1517 2358 1370 2437 1370 2621 c 0
 1370 2804 1497 2893 1652 2893 c 0
 1799 2893 1862 2778 1882 2736 c 1
EndSplineSet
Ligature2: "'liga' Standard Ligatures lookup 0-1" f l
LCarets2: 1 0
EndChar

StartChar: uniFB03
Encoding: 64259 64259 293
GlifName: uniF_B_03
Width: 3726
VWidth: 4730
Flags: HMW
LayerCount: 2
Fore
SplineSet
1671 2098 m 2
 1671 2666 2044 3113 2707 3113 c 0
 3129 3113 3334 2895 3334 2650 c 0
 3334 2462 3214 2354 3060 2354 c 0
 2922 2354 2779 2446 2779 2617 c 0
 2779 2789 2909 2888 3052 2888 c 0
 3183 2888 3262 2815 3282 2742 c 1
 3248 2918 3076 3087 2707 3087 c 0
 2263 3087 2132 2740 2132 2213 c 2
 2132 1 l 1
 1671 1 l 1
 1671 2098 l 2
93 25 m 1
 3606 25 l 1
 3606 0 l 1
 93 0 l 1
 93 25 l 1
462 1892 m 2
 462 2445 854 2908 1434 2908 c 0
 1778 2908 2014 2659 2014 2443 c 0
 2014 2255 1893 2148 1739 2148 c 0
 1606 2148 1458 2237 1458 2416 c 0
 1458 2594 1583 2684 1726 2684 c 0
 1840 2684 1929 2616 1951 2548 c 1
 1917 2692 1729 2881 1444 2881 c 0
 1109 2881 922 2527 922 2007 c 2
 922 0 l 1
 462 0 l 1
 462 1892 l 2
2848 1859 m 1
 93 1859 l 1
 93 1884 l 1
 3318 1884 l 1
 3318 0 l 1
 2848 0 l 1
 2848 1859 l 1
EndSplineSet
Ligature2: "'liga' Standard Ligatures lookup 0-1" f f i
LCarets2: 2 0 0
EndChar

StartChar: uniFB04
Encoding: 64260 64260 294
GlifName: uniF_B_04
Width: 3873
VWidth: 4730
Flags: HMW
LayerCount: 2
Fore
SplineSet
93 25 m 1
 3768 25 l 1
 3768 0 l 1
 93 0 l 1
 93 25 l 1
93 1884 m 1
 2705 1884 l 1
 2705 1859 l 1
 93 1859 l 1
 93 1884 l 1
2982 2990 m 1
 3453 3154 l 1
 3453 0 l 1
 2982 0 l 1
 2982 2990 l 1
1943 2550 m 1
 1909 2694 1723 2882 1440 2882 c 0
 1110 2882 922 2527 922 2007 c 2
 922 0 l 1
 462 0 l 1
 462 1892 l 2
 462 2448 855 2908 1430 2908 c 0
 1774 2908 2007 2656 2007 2443 c 0
 2007 2255 1886 2148 1732 2148 c 0
 1599 2148 1451 2237 1451 2416 c 0
 1451 2594 1576 2682 1719 2682 c 0
 1828 2682 1919 2617 1943 2550 c 1
3095 2743 m 1
 3073 2915 2899 3087 2621 3087 c 0
 2239 3087 2145 2732 2145 2212 c 2
 2145 0 l 1
 1684 0 l 1
 1684 2097 l 2
 1684 2654 2048 3113 2611 3113 c 0
 2953 3113 3146 2893 3146 2653 c 0
 3146 2465 3025 2358 2871 2358 c 0
 2738 2358 2590 2437 2590 2621 c 0
 2590 2804 2716 2892 2871 2892 c 0
 3019 2892 3071 2785 3095 2743 c 1
EndSplineSet
Ligature2: "'liga' Standard Ligatures lookup 0-1" f f l
LCarets2: 2 0 0
EndChar

StartChar: ogonek
Encoding: 731 731 295
GlifName: ogonek
Width: 2252
Flags: HMW
LayerCount: 2
Fore
SplineSet
1614 -484 m 1
 1552 -598 1445 -782 1123 -782 c 0
 883 -782 650 -676 650 -430 c 0
 650 -102 1010 91 1290 178 c 1
 1303 160 l 1
 1197 100 1114 -83 1114 -343 c 0
 1114 -551 1206 -686 1334 -686 c 0
 1464 -686 1529 -590 1599 -472 c 1
 1614 -484 l 1
EndSplineSet
EndChar

StartChar: dotlessi
Encoding: 305 305 296
GlifName: dotlessi
Width: 1224
VWidth: 4730
Flags: HMW
LayerCount: 2
Fore
SplineSet
91 25 m 1
 1136 25 l 1
 1136 0 l 1
 91 0 l 1
 91 25 l 1
378 1859 m 1
 91 1859 l 1
 91 1884 l 1
 849 1884 l 1
 849 0 l 1
 378 0 l 1
 378 1859 l 1
EndSplineSet
EndChar

StartChar: uni0237
Encoding: 567 567 297
GlifName: uni0237
Width: 1264
VWidth: 4730
Flags: HMW
LayerCount: 2
Fore
SplineSet
935 1884 m 1
 935 -49 l 2
 935 -586 721 -1065 169 -1065 c 0
 -183 -1065 -396 -850 -396 -598 c 0
 -396 -410 -262 -304 -112 -304 c 0
 21 -304 169 -382 169 -566 c 0
 169 -740 46 -836 -130 -836 c 0
 -240 -836 -320 -761 -346 -686 c 1
 -332 -854 -145 -1034 133 -1034 c 0
 533 -1034 460 -436 460 84 c 2
 464 1859 l 1
 98 1859 l 1
 98 1884 l 1
 935 1884 l 1
EndSplineSet
EndChar

StartChar: kgreenlandic
Encoding: 312 312 306
GlifName: kgreenlandic
Width: 2523
VWidth: 4730
Flags: HMW
LayerCount: 2
Fore
SplineSet
2312 0 m 1
 1729 0 l 1
 865 1082 l 1
 1938 1884 l 1
 1974 1884 l 1
 1237 1321 l 1
 2312 0 l 1
1404 25 m 1
 2466 25 l 1
 2466 0 l 1
 1404 0 l 1
 1404 25 l 1
2298 1859 m 1
 1384 1859 l 1
 1384 1884 l 1
 2298 1884 l 1
 2298 1859 l 1
98 25 m 1
 1192 25 l 1
 1192 0 l 1
 98 0 l 1
 98 25 l 1
466 1859 m 1
 98 1859 l 1
 98 1884 l 1
 938 1884 l 1
 938 0 l 1
 466 0 l 1
 466 1859 l 1
EndSplineSet
EndChar

StartChar: breve
Encoding: 728 728 307
GlifName: breve
Width: 1187
VWidth: 4730
Flags: HMW
LayerCount: 2
Fore
SplineSet
143 3108 m 1
 143 2912 372 2826 594 2826 c 0
 816 2826 1046 2912 1046 3108 c 1
 1065 3108 l 1
 1065 2786 952 2518 594 2518 c 0
 236 2518 122 2786 122 3108 c 1
 143 3108 l 1
EndSplineSet
EndChar

StartChar: thorn
Encoding: 254 254 318
GlifName: thorn
Width: 2465
VWidth: 4730
Flags: HMW
LayerCount: 2
Fore
SplineSet
808 942 m 0
 808 1552 1048 1922 1470 1922 c 0
 1914 1922 2334 1556 2334 942 c 0
 2334 328 1914 -40 1470 -40 c 0
 1050 -40 808 332 808 942 c 0
828 942 m 0
 828 330 1087 16 1375 16 c 0
 1663 16 1793 374 1793 942 c 0
 1793 1510 1663 1864 1375 1864 c 0
 1087 1864 828 1554 828 942 c 0
71 -999 m 1
 1116 -999 l 1
 1116 -1024 l 1
 71 -1024 l 1
 71 -999 l 1
357 3047 m 1
 71 3047 l 1
 71 3072 l 1
 828 3072 l 1
 828 -1024 l 1
 357 -1024 l 1
 357 3047 l 1
EndSplineSet
EndChar

StartChar: Thorn
Encoding: 222 222 319
GlifName: T_horn
Width: 2611
Flags: HMW
LayerCount: 2
Fore
SplineSet
430 3072 m 1
 942 3072 l 1
 942 0 l 1
 430 0 l 1
 430 3072 l 1
62 25 m 1
 1311 25 l 1
 1311 0 l 1
 62 0 l 1
 62 25 l 1
62 3072 m 1
 1311 3072 l 1
 1311 3047 l 1
 62 3047 l 1
 62 3072 l 1
1393 738 m 2
 860 738 l 1
 860 763 l 1
 1321 763 l 2
 1715 763 1894 1234 1894 1598 c 0
 1894 1962 1715 2433 1321 2433 c 2
 860 2433 l 1
 860 2458 l 1
 1393 2458 l 2
 2135 2458 2468 2130 2468 1598 c 0
 2468 1066 2135 738 1393 738 c 2
EndSplineSet
EndChar

StartChar: Lslash
Encoding: 321 321 324
GlifName: L_slash
Width: 2445
Flags: HMW
LayerCount: 2
Fore
SplineSet
74 1474 m 1
 1588 2376 l 1
 1588 2346 l 1
 74 1444 l 1
 74 1474 l 1
EndSplineSet
Refer: 23 76 N 1 0 0 1 0 0 2
EndChar

StartChar: lslash
Encoding: 322 322 325
GlifName: lslash
Width: 1378
VWidth: 4730
Flags: HMW
LayerCount: 2
Fore
SplineSet
87 1597 m 1
 1358 2376 l 1
 1358 2348 l 1
 87 1569 l 1
 87 1597 l 1
EndSplineSet
Refer: 49 108 N 1 0 0 1 0 0 2
EndChar

StartChar: eth
Encoding: 240 240 329
GlifName: eth
Width: 2394
VWidth: 4730
Flags: HMW
LayerCount: 2
Fore
SplineSet
492 2580 m 1
 2264 2580 l 1
 2264 2555 l 1
 492 2555 l 1
 492 2580 l 1
2192 1270 m 0
 2192 410 1779 -40 1141 -40 c 0
 503 -40 122 410 122 1024 c 0
 122 1720 616 2012 1050 2012 c 0
 1540 2012 1671 1636 1671 1146 c 1
 1649 1146 l 1
 1649 1646 1495 1958 1152 1958 c 0
 838 1958 666 1624 666 1024 c 0
 666 506 744 -15 1128 -15 c 0
 1512 -15 1649 546 1649 1146 c 1
 1649 1344 l 1
 1649 2130 1154 3089 430 3089 c 1
 430 3112 l 1
 1413 3112 2192 2286 2192 1270 c 0
EndSplineSet
EndChar

StartChar: OE
Encoding: 338 338 330
GlifName: O_E_
Width: 3991
Flags: HMW
LayerCount: 2
Fore
SplineSet
1632 3047 m 1025,0,0
758 1536 m 0,0,0
 758 760 970 25 1632 25 c 1,0,0
 1570 0 l 1,0,0
 738 0 164 622 164 1536 c 0,0,0
 164 2450 738 3072 1570 3072 c 1,0,0
 1632 3047 l 1,0,0
 970 3047 758 2312 758 1536 c 0,0,0
EndSplineSet
Refer: 16 69 N 1 0 0 1 1486 0 2
EndChar

StartChar: germandbls
Encoding: 223 223 332
GlifName: germandbls
Width: 2972
VWidth: 4730
Flags: HMW
LayerCount: 2
Fore
SplineSet
1528 1653 m 1
 1528 1671 l 1
 2015 1671 2150 2076 2150 2338 c 0
 2150 2632 2026 3088 1610 3088 c 0
 1082 3088 922 2552 922 1970 c 2
 922 0 l 1
 430 0 l 1
 430 2012 l 2
 430 2742 952 3112 1620 3112 c 0
 2206 3112 2688 2792 2688 2380 c 0
 2688 1950 2352 1653 1528 1653 c 1
62 25 m 1
 1288 25 l 1
 1288 0 l 1
 62 0 l 1
 62 25 l 1
2810 686 m 0
 2810 235 2395 -40 1940 -40 c 0
 1608 -40 1354 200 1354 598 c 0
 1354 796 1494 904 1658 904 c 0
 1802 904 1931 813 1931 635 c 0
 1931 473 1786 368 1646 368 c 0
 1514 368 1411 458 1385 558 c 1
 1399 208 1634 -6 1898 -6 c 0
 2212 -6 2274 394 2274 656 c 0
 2274 1042 2179 1647 1528 1647 c 1
 1528 1664 l 1
 2516 1664 2810 1218 2810 686 c 0
EndSplineSet
EndChar

StartChar: circumflex
Encoding: 710 710 335
GlifName: circumflex
Width: 1658
Flags: HMW
LayerCount: 2
Fore
SplineSet
827 2918 m 1
 217 2638 l 1
 204 2652 l 1
 676 3154 l 1
 984 3154 l 1
 1454 2652 l 1
 1441 2638 l 1
 827 2918 l 1
EndSplineSet
EndChar

StartChar: caron
Encoding: 711 711 336
GlifName: caron
Width: 1658
Flags: HMW
LayerCount: 2
Fore
SplineSet
828 2928 m 1
 1440 3207 l 1
 1454 3194 l 1
 984 2693 l 1
 676 2693 l 1
 204 3194 l 1
 219 3207 l 1
 828 2928 l 1
EndSplineSet
EndChar

StartChar: pi
Encoding: 960 960 337
GlifName: pi
Width: 2480
VWidth: 4730
Flags: HMW
LayerCount: 2
Fore
SplineSet
2338 422 m 1
 2244 136 2099 -40 1845 -40 c 0
 1611 -40 1418 68 1418 320 c 2
 1418 1720 l 1
 1888 1720 l 1
 1888 336 l 2
 1888 254 1937 182 2044 182 c 0
 2150 182 2236 249 2320 435 c 1
 2338 422 l 1
467 -40 m 0
 279 -40 174 64 174 197 c 0
 174 527 724 386 724 1142 c 2
 724 1844 l 1
 954 1844 l 1
 954 996 l 2
 954 348 777 -40 467 -40 c 0
2256 1884 m 1
 2256 1414 l 1
 193 1414 l 1
 193 1106 l 1
 168 1106 l 1
 168 1884 l 1
 2256 1884 l 1
EndSplineSet
EndChar

StartChar: uni1E9E
Encoding: 7838 7838 338
GlifName: uni1E_9E_
Width: 3464
VWidth: 4730
Flags: HMW
LayerCount: 2
Fore
SplineSet
61 25 m 1
 1331 25 l 1
 1331 0 l 1
 61 0 l 1
 61 25 l 1
2328 1644 m 1
 2156 1670 1982 1688 1804 1700 c 1
 2787 2918 l 1
 2650 2988 2383 3086 2029 3086 c 0
 1275 3086 963 2501 963 1765 c 2
 963 0 l 1
 430 0 l 1
 430 1806 l 2
 430 2658 1127 3113 2029 3113 c 0
 2656 3113 3044 2842 3178 2696 c 1
 2328 1644 l 1
1368 532 m 1
 1396 264 1679 0 2124 0 c 0
 2586 0 2750 382 2750 798 c 0
 2750 1132 2650 1676 1804 1676 c 1
 1804 1700 l 1
 3027 1700 3302 1276 3302 804 c 0
 3302 262 2824 -41 2226 -41 c 0
 1613 -41 1331 292 1331 608 c 0
 1331 807 1460 930 1634 930 c 0
 1788 930 1906 824 1906 646 c 0
 1906 484 1766 369 1616 369 c 0
 1495 369 1394 458 1368 532 c 1
EndSplineSet
EndChar

StartChar: uni203D
Encoding: 8253 8253 339
GlifName: uni203D_
Width: 2579
Flags: HMW
LayerCount: 2
Fore
SplineSet
1581 2054 m 0
 1536 1661 1280 1211 1280 924 c 1
 1254 924 l 1
 1254 1211 1081 1661 1036 2054 c 0
 1032 2083 1032 2107 1032 2132 c 0
 1032 2247 1094 2438 1308 2438 c 0
 1522 2438 1585 2247 1585 2132 c 0
 1585 2107 1585 2083 1581 2054 c 0
276 2247 m 0
 276 2624 672 3113 1366 3113 c 0
 1984 3113 2438 2795 2438 2253 c 0
 2438 1741 1876 1372 1360 1372 c 1
 1360 1392 l 1
 1706 1423 1982 1874 1982 2294 c 0
 1982 2679 1718 3058 1272 3058 c 0
 708 3058 354 2626 330 2339 c 1
 354 2409 433 2488 561 2488 c 0
 711 2488 826 2365 826 2222 c 0
 826 2027 673 1942 551 1942 c 0
 407 1942 276 2048 276 2247 c 0
EndSplineSet
Refer: 1 46 N 1 0 0 1 794 0 2
EndChar

StartChar: R.alt
Encoding: 65536 -1 340
GlifName: R_.alt
Width: 2885
Flags: HMW
LayerCount: 2
Fore
SplineSet
1474 1566 m 2
 818 1566 l 1
 818 1586 l 1
 1422 1586 l 2
 1815 1586 2026 1844 2026 2310 c 0
 2026 2776 1815 3047 1422 3047 c 2
 80 3047 l 1
 80 3072 l 1
 1474 3072 l 2
 2123 3072 2559 2842 2559 2310 c 0
 2559 1778 2164 1566 1474 1566 c 2
80 25 m 1
 1452 25 l 1
 1452 0 l 1
 80 0 l 1
 80 25 l 1
510 3072 m 1
 1023 3072 l 1
 1023 0 l 1
 510 0 l 1
 510 3072 l 1
2835 0 m 1
 2769 0 2614 0 2467 0 c 0
 1451 0 2390 1559 1402 1559 c 2
 818 1559 l 1
 818 1577 l 1
 1607 1577 l 2
 3002 1577 2198 25 2692 25 c 0
 2778 25 2778 25 2835 25 c 1
 2835 0 l 1
EndSplineSet
EndChar

StartChar: J.alt
Encoding: 65537 -1 341
GlifName: J_.alt
Width: 2403
Flags: HMW
LayerCount: 2
Fore
SplineSet
920 3072 m 1
 2344 3072 l 1
 2344 3047 l 1
 920 3047 l 1
 920 3072 l 1
1422 3072 m 1
 1934 3072 l 1
 1934 1034 l 1
 1872 420 1539 -62 849 -62 c 0
 339 -62 77 307 77 635 c 0
 77 920 259 1075 454 1075 c 0
 628 1075 776 971 776 757 c 0
 776 583 621 442 442 442 c 0
 290 442 144 513 107 620 c 1
 118 276 400 -32 828 -32 c 0
 1293 -32 1422 389 1422 962 c 2
 1422 3072 l 1
EndSplineSet
EndChar

StartChar: four.alt
Encoding: 65538 -1 342
GlifName: four.alt
Width: 2559
VWidth: 4730
Flags: HMW
LayerCount: 2
Fore
SplineSet
2294 25 m 1
 2294 0 l 1
 1085 0 l 1
 1085 25 l 1
 2294 25 l 1
1987 2040 m 1
 1987 -3 l 1
 1475 -3 l 1
 1475 1907 l 1
 1629 1907 1885 1978 1987 2040 c 1
104 787 m 1
 2355 787 l 1
 2355 762 l 1
 61 762 l 1
 634 1581 1290 2458 1372 3072 c 1
 1917 3072 l 1
 1839 2427 682 1582 104 787 c 1
EndSplineSet
EndChar

StartChar: fj.lig
Encoding: 65539 -1 343
GlifName: fj.lig
Width: 2416
VWidth: 4730
Flags: HMW
LayerCount: 2
Fore
SplineSet
97 25 m 1
 1310 25 l 1
 1310 0 l 1
 97 0 l 1
 97 25 l 1
2078 -49 m 2
 2078 -586 1865 -1065 1313 -1065 c 0
 961 -1065 748 -857 748 -603 c 0
 748 -415 877 -304 1031 -304 c 0
 1164 -304 1312 -382 1312 -566 c 0
 1312 -749 1179 -836 1017 -836 c 0
 911 -836 824 -765 798 -693 c 1
 828 -877 1011 -1035 1281 -1035 c 0
 1681 -1035 1608 -438 1608 82 c 2
 1608 1859 l 1
 97 1859 l 1
 97 1884 l 1
 2078 1884 l 1
 2078 -49 l 2
2029 2763 m 1
 2005 2909 1843 3086 1466 3086 c 0
 1050 3086 926 2732 926 2212 c 2
 926 0 l 1
 466 0 l 1
 466 2097 l 2
 466 2665 801 3113 1466 3113 c 0
 1890 3113 2093 2893 2093 2650 c 0
 2093 2462 1974 2354 1820 2354 c 0
 1687 2354 1539 2433 1539 2617 c 0
 1539 2796 1680 2888 1816 2888 c 0
 1935 2888 2003 2824 2029 2763 c 1
EndSplineSet
Ligature2: "'liga' Standard Ligatures lookup 0-1" f j
LCarets2: 1 0
EndChar

StartChar: uni2116
Encoding: 8470 8470 344
GlifName: uni2116
Width: 4592
Flags: HW
LayerCount: 2
Fore
SplineSet
3442 2334 m 0
 3442 1868 3534 1579 3756 1579 c 0
 3978 1579 4070 1868 4070 2334 c 0
 4070 2800 3978 3089 3756 3089 c 0
 3534 3089 3442 2800 3442 2334 c 0
3032 2334 m 0
 3032 2836 3332 3112 3756 3112 c 0
 4180 3112 4480 2836 4480 2334 c 0
 4480 1832 4180 1556 3756 1556 c 0
 3332 1556 3032 1832 3032 2334 c 0
EndSplineSet
Refer: 85 45 N 1 0 0 1 3018 164 2
Refer: 25 78 N 1 0 0 1 0 0 2
EndChar

StartChar: Euro
Encoding: 8364 8364 345
GlifName: E_uro
Width: 2938
Flags: HW
LayerCount: 2
Fore
SplineSet
2668 2639 m 1
 2605 2817 2336 3080 1942 3080 c 0
 1301 3080 1086 2290 1086 1536 c 0
 1086 700 1356 3 1854 3 c 0
 2266 3 2577 345 2679 729 c 1
 2706 729 l 1
 2600 332 2290 -41 1774 -41 c 0
 1105 -41 481 594 481 1536 c 0
 481 2396 1026 3113 1880 3113 c 0
 2411 3113 2734 2746 2734 2502 c 0
 2734 2303 2603 2198 2449 2198 c 0
 2316 2198 2165 2283 2165 2478 c 0
 2165 2652 2299 2755 2449 2755 c 0
 2563 2755 2644 2680 2668 2639 c 1
EndSplineSet
Refer: 88 61 N 1 0 0 1 -123 -287 2
EndChar

